<svg width="40" height="40" viewBox="0 0 40 40" fill="none" xmlns="http://www.w3.org/2000/svg">
<path d="M20 40C31.0457 40 40 31.0457 40 20C40 8.95431 31.0457 0 20 0C8.95431 0 0 8.95431 0 20C0 31.0457 8.95431 40 20 40Z" fill="#1A4789"/>
<path fill-rule="evenodd" clip-rule="evenodd" d="M22.8073 8.49875C22.8073 8.49875 18.6952 8.2413 17.641 11.9898C17.641 11.9898 17.2592 13.9733 17.3116 16.3956L13.5357 16.4061V20.575L17.3116 20.5645V31.505H22.1247V20.575L25.526 20.5645L25.942 16.3956L22.1247 16.3956V14.6688C22.1247 13.5492 22.7736 12.4784 24.6719 12.4784H26.4643V8.49875H22.8073Z" fill="white"/>
</svg>
