<svg width="40" height="40" viewBox="0 0 40 40" fill="none" xmlns="http://www.w3.org/2000/svg">
<path d="M40 20C40 8.95431 31.0457 0 20 0C8.95431 0 0 8.95431 0 20C0 31.0457 8.95431 40 20 40C31.0457 40 40 31.0457 40 20Z" fill="url(#paint0_linear_468_3701)"/>
<path d="M16.1688 20.0001C16.1688 17.8831 17.884 16.1665 20.0005 16.1665C22.1169 16.1665 23.833 17.8831 23.833 20.0001C23.833 22.1171 22.1169 23.8337 20.0005 23.8337C17.884 23.8337 16.1688 22.1171 16.1688 20.0001ZM14.0971 20.0001C14.0971 23.2615 16.74 25.9052 20.0005 25.9052C23.2609 25.9052 25.9039 23.2615 25.9039 20.0001C25.9039 16.7387 23.2609 14.095 20.0005 14.095C16.74 14.095 14.0971 16.7387 14.0971 20.0001ZM24.758 13.8608C24.7579 14.1338 24.8387 14.4006 24.9902 14.6276C25.1417 14.8546 25.3571 15.0316 25.6091 15.1361C25.8611 15.2407 26.1386 15.2681 26.4062 15.215C26.6738 15.1618 26.9197 15.0305 27.1127 14.8376C27.3057 14.6447 27.4372 14.3988 27.4906 14.1312C27.5439 13.8635 27.5167 13.586 27.4124 13.3338C27.308 13.0816 27.1313 12.866 26.9045 12.7143C26.6777 12.5625 26.411 12.4815 26.1381 12.4814H26.1376C25.7718 12.4816 25.4211 12.6269 25.1624 12.8856C24.9038 13.1442 24.7583 13.495 24.758 13.8608ZM15.3558 29.3608C14.2349 29.3097 13.6257 29.123 13.2208 28.9652C12.6841 28.7562 12.3011 28.5072 11.8984 28.105C11.4958 27.7028 11.2465 27.3201 11.0385 26.7831C10.8806 26.3784 10.694 25.7688 10.643 24.6476C10.5872 23.4354 10.5761 23.0713 10.5761 20.0002C10.5761 16.9291 10.5882 16.566 10.643 15.3528C10.694 14.2316 10.8821 13.6232 11.0385 13.2172C11.2475 12.6803 11.4963 12.2972 11.8984 11.8945C12.3005 11.4916 12.6831 11.2423 13.2208 11.0342C13.6255 10.8764 14.2349 10.6896 15.3558 10.6386C16.5676 10.5829 16.9317 10.5717 20.0005 10.5717C23.0693 10.5717 23.4337 10.5838 24.6465 10.6386C25.7674 10.6897 26.3756 10.8778 26.7815 11.0342C27.3182 11.2423 27.7012 11.4922 28.1039 11.8945C28.5065 12.2967 28.7549 12.6803 28.9638 13.2172C29.1216 13.622 29.3084 14.2316 29.3593 15.3528C29.4151 16.566 29.4262 16.9291 29.4262 20.0002C29.4262 23.0713 29.4151 23.4344 29.3593 24.6476C29.3083 25.7688 29.1206 26.3782 28.9638 26.7831C28.7549 27.3201 28.506 27.7032 28.1039 28.105C27.7018 28.5069 27.3182 28.7562 26.7815 28.9652C26.3768 29.1231 25.7674 29.3098 24.6465 29.3608C23.4347 29.4166 23.0706 29.4277 20.0005 29.4277C16.9303 29.4277 16.5673 29.4166 15.3558 29.3608ZM15.2606 8.56976C14.0367 8.62548 13.2004 8.81963 12.4701 9.10388C11.7137 9.39747 11.0733 9.7913 10.4335 10.4303C9.79362 11.0694 9.4009 11.7109 9.10741 12.4675C8.82321 13.1985 8.62916 14.0346 8.57339 15.2589C8.51677 16.4851 8.50377 16.8771 8.50377 20.0001C8.50377 23.1231 8.51677 23.5151 8.57339 24.7413C8.62916 25.9656 8.82321 26.8017 9.10741 27.5327C9.4009 28.2888 9.79372 28.9311 10.4335 29.5699C11.0732 30.2086 11.7137 30.6019 12.4701 30.8963C13.2018 31.1806 14.0367 31.3747 15.2606 31.4305C16.4871 31.4862 16.8783 31.5001 20.0005 31.5001C23.1226 31.5001 23.5145 31.4871 24.7403 31.4305C25.9643 31.3747 26.8001 31.1806 27.5309 30.8963C28.2868 30.6019 28.9276 30.2089 29.5675 29.5699C30.2073 28.9308 30.5992 28.2888 30.8935 27.5327C31.1777 26.8017 31.3727 25.9656 31.4275 24.7413C31.4832 23.5142 31.4962 23.1231 31.4962 20.0001C31.4962 16.8771 31.4832 16.4851 31.4275 15.2589C31.3718 14.0346 31.1777 13.1981 30.8935 12.4675C30.5992 11.7113 30.2063 11.0704 29.5675 10.4303C28.9286 9.79029 28.2868 9.39747 27.5318 9.10388C26.8001 8.81963 25.9642 8.62457 24.7412 8.56976C23.5154 8.514 23.1235 8.50009 20.0014 8.50009C16.8793 8.50009 16.4871 8.51304 15.2606 8.56976Z" fill="white"/>
<defs>
<linearGradient id="paint0_linear_468_3701" x1="26.0467" y1="47.3862" x2="15.1903" y2="2.44624e-07" gradientUnits="userSpaceOnUse">
<stop stop-color="#FBE18A"/>
<stop offset="0.21" stop-color="#FCBB45"/>
<stop offset="0.38" stop-color="#F75274"/>
<stop offset="0.52" stop-color="#D53692"/>
<stop offset="0.74" stop-color="#8F39CE"/>
<stop offset="1" stop-color="#5B4FE9"/>
</linearGradient>
</defs>
</svg>
