<svg width="334" height="48" viewBox="0 0 334 48" fill="none" xmlns="http://www.w3.org/2000/svg">
<path d="M85.5664 20.2407C85.4115 20.0858 85.1238 19.8755 84.7033 19.61C84.305 19.3444 83.8071 19.0899 83.2096 18.8465C82.6342 18.603 82.0035 18.3928 81.3174 18.2158C80.6314 18.0166 79.9343 17.917 79.2262 17.917C77.9869 17.917 77.0463 18.1494 76.4046 18.6141C75.7849 19.0788 75.4751 19.7317 75.4751 20.5726C75.4751 21.2144 75.6743 21.7234 76.0726 22.0996C76.471 22.4758 77.0685 22.7967 77.8652 23.0622C78.6618 23.3278 79.6577 23.6155 80.8527 23.9253C82.4018 24.3015 83.7407 24.7663 84.8693 25.3195C86.0201 25.8506 86.8942 26.5588 87.4917 27.444C88.1114 28.3071 88.4212 29.4578 88.4212 30.8963C88.4212 32.1577 88.1888 33.2421 87.7241 34.1494C87.2593 35.0346 86.6176 35.7538 85.7988 36.3071C84.98 36.8603 84.0505 37.2697 83.0104 37.5353C81.9703 37.7787 80.8638 37.9004 79.6909 37.9004C78.518 37.9004 77.3451 37.7787 76.1722 37.5353C74.9993 37.2918 73.8707 36.9488 72.7863 36.5062C71.7019 36.0415 70.7061 35.4883 69.7988 34.8465L71.8237 30.8963C72.0228 31.0954 72.3769 31.361 72.8859 31.693C73.3949 32.0028 74.0145 32.3237 74.7448 32.6556C75.4751 32.9654 76.2718 33.231 77.1349 33.4523C77.9979 33.6736 78.8721 33.7842 79.7573 33.7842C80.9966 33.7842 81.9371 33.574 82.5788 33.1535C83.2206 32.7331 83.5415 32.1356 83.5415 31.361C83.5415 30.6528 83.287 30.0996 82.778 29.7013C82.269 29.3029 81.5609 28.9599 80.6535 28.6722C79.7462 28.3624 78.6729 28.0304 77.4336 27.6764C75.9509 27.2559 74.7116 26.7912 73.7158 26.2822C72.7199 25.751 71.9786 25.0871 71.4917 24.2905C71.0049 23.4938 70.7614 22.4979 70.7614 21.3029C70.7614 19.6874 71.1376 18.3375 71.8901 17.2531C72.6646 16.1466 73.7047 15.3167 75.0104 14.7635C76.3161 14.1881 77.7656 13.9004 79.3589 13.9004C80.4654 13.9004 81.5055 14.0221 82.4793 14.2656C83.4751 14.509 84.4046 14.8299 85.2676 15.2282C86.1307 15.6266 86.9053 16.0581 87.5913 16.5228L85.5664 20.2407Z" fill="white"/>
<path d="M97.7708 14.0664H102.418L111.082 37.6349H106.368L104.177 31.7593H95.945L93.7874 37.6349H89.0737L97.7708 14.0664ZM103.348 28.5394L100.094 18.8133L96.7085 28.5394H103.348Z" fill="white"/>
<path d="M113.667 37.6349V14.0996H118.248V25.2863L128.14 14.0664H133.186L124.157 24.5228L133.75 37.6349H128.572L121.235 27.4772L118.248 30.5975V37.6349H113.667Z" fill="white"/>
<path d="M145.864 37.8008C143.983 37.8008 142.379 37.491 141.051 36.8714C139.745 36.2296 138.683 35.3555 137.864 34.249C137.068 33.1425 136.481 31.8921 136.105 30.4979C135.729 29.0816 135.541 27.61 135.541 26.083V14.0664H140.122V26.083C140.122 27.0567 140.21 28.0083 140.387 28.9378C140.586 29.8451 140.907 30.6639 141.35 31.3942C141.792 32.1245 142.379 32.6999 143.109 33.1203C143.839 33.5408 144.747 33.751 145.831 33.751C146.938 33.751 147.856 33.5408 148.586 33.1203C149.339 32.6777 149.925 32.0913 150.346 31.361C150.788 30.6307 151.109 29.8119 151.308 28.9046C151.508 27.9751 151.607 27.0346 151.607 26.083V14.0664H156.155V26.083C156.155 27.6985 155.956 29.2144 155.557 30.6307C155.181 32.047 154.573 33.2974 153.732 34.3818C152.913 35.444 151.851 36.2849 150.545 36.9046C149.239 37.5021 147.679 37.8008 145.864 37.8008Z" fill="white"/>
<path d="M160.769 37.6349V14.0664H171.192C172.277 14.0664 173.272 14.2877 174.18 14.7303C175.109 15.1729 175.906 15.7704 176.57 16.5228C177.256 17.2752 177.776 18.1162 178.13 19.0457C178.506 19.9751 178.694 20.9267 178.694 21.9004C178.694 22.8963 178.517 23.8589 178.163 24.7884C177.831 25.6957 177.344 26.4924 176.703 27.1784C176.061 27.8645 175.308 28.3956 174.445 28.7718L179.823 37.6349H174.777L169.931 29.7344H165.35V37.6349H160.769ZM165.35 25.7178H171.093C171.668 25.7178 172.177 25.5519 172.62 25.2199C173.062 24.8658 173.416 24.4011 173.682 23.8257C173.947 23.2504 174.08 22.6086 174.08 21.9004C174.08 21.148 173.925 20.4952 173.615 19.9419C173.306 19.3665 172.907 18.9129 172.42 18.5809C171.956 18.249 171.447 18.083 170.893 18.083H165.35V25.7178Z" fill="white"/>
<path d="M189.252 14.0664H193.899L202.563 37.6349H197.849L195.658 31.7593H187.426L185.268 37.6349H180.554L189.252 14.0664ZM194.828 28.5394L191.575 18.8133L188.189 28.5394H194.828Z" fill="white"/>
<path d="M220.06 37.6349V14.0664H230.483C231.567 14.0664 232.563 14.2877 233.47 14.7303C234.4 15.1729 235.197 15.7704 235.86 16.5228C236.547 17.2752 237.067 18.1162 237.421 19.0457C237.797 19.9751 237.985 20.9267 237.985 21.9004C237.985 22.8963 237.808 23.8589 237.454 24.7884C237.122 25.6957 236.635 26.4924 235.993 27.1784C235.351 27.8645 234.599 28.3956 233.736 28.7718L239.114 37.6349H234.068L229.221 29.7344H224.641V37.6349H220.06ZM224.641 25.7178H230.383C230.959 25.7178 231.468 25.5519 231.91 25.2199C232.353 24.8658 232.707 24.4011 232.973 23.8257C233.238 23.2504 233.371 22.6086 233.371 21.9004C233.371 21.148 233.216 20.4952 232.906 19.9419C232.596 19.3665 232.198 18.9129 231.711 18.5809C231.246 18.249 230.737 18.083 230.184 18.083H224.641V25.7178Z" fill="white"/>
<path d="M248.542 14.0664H253.19L261.853 37.6349H257.14L254.949 31.7593H246.717L244.559 37.6349H239.845L248.542 14.0664ZM254.119 28.5394L250.866 18.8133L247.48 28.5394H254.119Z" fill="white"/>
<path d="M283.658 37.6349V22.166L277.617 33.6847H275.061L269.019 22.166V37.6349H264.439V14.0664H269.351L276.322 27.4772L283.36 14.0664H288.239V37.6349H283.658Z" fill="white"/>
<path d="M309.525 33.6183V37.6349H293.16V14.0664H309.226V18.083H297.741V23.7593H307.666V27.4772H297.741V33.6183H309.525Z" fill="white"/>
<path d="M317.677 22.4979V37.6349H313.096V14.0664H316.748L328.931 29.6017V14.0996H333.511V37.6349H329.694L317.677 22.4979Z" fill="white"/>
<path d="M47.9823 19.9011C47.9734 19.5679 47.9467 19.2347 47.8934 18.9059L45.5296 18.386L46.205 17.6084L47.1469 16.5243C46.9914 16.2133 46.8182 15.9111 46.6271 15.6268C44.481 12.4143 40.18 10.9658 36.4521 12.2188C35.6479 12.4899 34.7948 12.912 33.9506 13.4496C32.7643 14.2005 31.5868 15.178 30.5649 16.2799C30.5516 16.2933 30.5382 16.3066 30.5249 16.3244C30.6893 16.0044 30.8448 15.6801 30.9959 15.3513C31.9201 13.2763 32.4621 11.0414 32.4621 9.21522C32.4621 6.99806 31.6668 4.86087 30.3605 3.19467C29.3164 1.86171 27.939 0.83088 26.3749 0.302138C26.3127 0.279922 26.2505 0.257706 26.1839 0.239933C25.864 0.142183 25.5396 0.0622049 25.2064 0.00888642L23.9934 2.16829L23.6601 1.5729L22.7893 0.00888642L22.7848 0C18.6837 0.684254 15.5291 4.78978 15.5291 9.20633C15.5291 10.6681 15.8756 12.3877 16.4844 14.0761C16.7554 14.8225 17.0753 15.5646 17.4396 16.271C17.4485 16.2844 17.453 16.2977 17.4619 16.3155C17.2353 16.0666 16.9998 15.8267 16.7554 15.5957C15.1292 14.0228 13.2275 12.7876 11.5346 12.2144C9.84176 11.6457 8.03337 11.6323 6.36273 12.09H6.35828C4.44326 12.6143 2.70597 13.7517 1.52851 15.3735C1.4752 15.449 1.41743 15.529 1.36412 15.609C1.16861 15.8978 0.995329 16.1999 0.835374 16.5199L2.4527 18.3816L0.37328 18.8437L0.364394 18.8481L0.0889146 18.9059C0.0800281 18.9725 0.0711417 19.0436 0.0622553 19.1102C0.0578121 19.1369 0.0578121 19.1591 0.0533689 19.1858C0.0533689 19.1991 0.0489257 19.2124 0.0489257 19.2258C0.0178232 19.4879 0.00449356 19.7501 5.03472e-05 20.0122C5.03472e-05 20.0433 5.03472e-05 20.0744 5.03472e-05 20.1011C-0.0132793 23.9489 2.62154 27.6634 6.30052 28.8986C7.22027 29.2097 8.30441 29.3963 9.4552 29.4585C10.6726 29.5251 11.9656 29.4496 13.223 29.2274C13.2897 29.2141 13.3563 29.2052 13.423 29.1919C12.1878 29.8095 11.0103 30.5871 9.99727 31.4446C9.99727 31.4446 9.99727 31.4446 9.99283 31.4446C9.12196 32.1822 8.3755 32.9731 7.8201 33.764C6.76262 35.2702 6.19388 37.0697 6.10502 38.8781C6.10502 38.8825 6.10502 38.887 6.10502 38.8914C6.07392 39.5446 6.10502 40.1977 6.19833 40.8375C6.20721 40.8909 6.2161 40.9397 6.22499 40.9931C6.23387 41.0419 6.24276 41.0864 6.25165 41.1352C6.26053 41.1797 6.26942 41.2285 6.27831 41.273C6.27831 41.2819 6.28275 41.2863 6.28275 41.2952C6.29164 41.3352 6.30052 41.3752 6.30497 41.4107C6.32718 41.5085 6.3494 41.6107 6.37161 41.7084C6.3805 41.744 6.38939 41.7839 6.39827 41.8195C6.40272 41.8328 6.40716 41.8506 6.40716 41.8639C6.41605 41.895 6.42493 41.9261 6.43382 41.9572C6.43826 41.9794 6.4427 41.9972 6.45159 42.0194C6.46048 42.055 6.46936 42.0861 6.47825 42.1216C6.49158 42.1705 6.50491 42.2194 6.52268 42.2683C6.54046 42.326 6.55823 42.3793 6.576 42.4371C6.576 42.4415 6.58044 42.446 6.58044 42.4504C6.59822 42.4993 6.61155 42.5482 6.62932 42.5971C6.63376 42.6104 6.63821 42.6193 6.64265 42.6326C6.66042 42.6815 6.67819 42.7348 6.69597 42.7837C6.70485 42.8103 6.71818 42.8414 6.72707 42.8681C6.73596 42.8947 6.74929 42.9259 6.75817 42.9525C6.75817 42.9525 6.75817 42.957 6.76262 42.9614C7.02921 43.6323 7.37578 44.2633 7.79788 44.8453C8.00227 45.1252 8.22443 45.3918 8.46437 45.6407L10.6726 44.6232L10.566 45.6629L10.4194 47.1158C10.6904 47.258 10.9659 47.3824 11.2458 47.4846C14.8226 48.8442 19.1903 47.4002 21.5141 44.0855C22.3627 42.8725 23.0736 41.2197 23.5402 39.429C23.7135 38.767 23.8512 38.0872 23.949 37.3985C23.9623 37.3185 23.9712 37.2341 23.9845 37.1541C24.1844 38.6648 24.5754 40.1711 25.1042 41.504C25.1042 41.5085 25.1086 41.5129 25.1086 41.5174C25.4952 42.486 25.9484 43.3613 26.4549 44.0855C27.1347 45.0541 27.9878 45.8628 28.9431 46.4893C30.1961 47.3069 31.6224 47.8134 33.0709 47.9556C33.1375 47.96 33.2042 47.9689 33.2708 47.9733C33.3152 47.9778 33.3552 47.9778 33.3997 47.9822C33.4885 47.9867 33.5729 47.9911 33.6618 47.9956C33.7062 47.9956 33.7507 48 33.7951 48C33.8395 48 33.884 48 33.9284 48C33.9551 48 33.9862 48 34.0128 48C34.2128 47.9956 34.4127 47.9867 34.6127 47.9689H34.6171C34.6526 47.9645 34.6926 47.96 34.7282 47.96C34.7771 47.9556 34.8304 47.9511 34.8792 47.9422C34.9326 47.9378 34.9859 47.9289 35.0392 47.92C35.9101 47.8001 36.7587 47.5379 37.5541 47.1202L37.3008 44.6276L37.9228 44.9164L39.5091 45.6495C39.6779 45.4718 39.8379 45.2896 39.9845 45.103C39.9889 45.0986 39.9889 45.0986 39.9889 45.0941C39.9978 45.0808 40.0067 45.0675 40.02 45.0541C42.4549 41.9483 42.5038 37.1319 40.1533 33.7773C39.7046 33.1375 39.1314 32.4976 38.4694 31.8889C37.3763 30.8803 36.0389 29.9517 34.626 29.2363C34.6038 29.223 34.5771 29.2141 34.5549 29.2008C34.9903 29.2808 35.4258 29.3474 35.8656 29.3918C35.8701 29.3918 35.879 29.3918 35.8834 29.3918C37.9762 29.614 40.0734 29.4452 41.6774 28.9031C44.681 27.89 46.9914 25.2285 47.729 22.1894C47.7335 22.1761 47.7379 22.1627 47.7379 22.145C47.8934 21.5007 47.9734 20.8342 47.9778 20.1677C47.9867 20.0789 47.9867 19.99 47.9823 19.9011Z" fill="#FFBBD7"/>
<path d="M30.5471 25.8106C32.0489 25.3041 33.0842 23.6823 32.8487 22.1094L31.9733 21.9183L32.5732 21.2296C31.8712 19.8123 30.1161 19.128 28.6143 19.6345C27.8945 19.8789 27.0725 20.4476 26.4193 21.1541C26.8681 20.2921 27.1347 19.3057 27.1347 18.5193C27.1347 16.8842 25.9661 15.3646 24.4466 15.1069L23.9933 15.9111L23.5446 15.1069C22.025 15.3602 20.8564 16.8797 20.8564 18.5193C20.8564 19.3057 21.123 20.2921 21.5718 21.1541C20.9186 20.4476 20.0966 19.8789 19.3768 19.6345C17.875 19.128 16.12 19.8123 15.4179 21.2296L16.0178 21.9183L15.1425 22.1094C14.907 23.6867 15.9422 25.3041 17.4441 25.8106C18.1639 26.055 19.1547 26.095 20.0833 25.9172C19.2347 26.3438 18.4571 26.9747 18.0083 27.6101C17.0797 28.9342 17.1641 30.8759 18.2483 32.0044L19.0658 31.6268L18.9725 32.5509C20.3455 33.2707 22.1539 32.7509 23.0825 31.4268C23.5268 30.7914 23.8689 29.8317 23.9978 28.8586C24.1266 29.8273 24.4688 30.7914 24.9131 31.4268C25.8417 32.7509 27.6501 33.2707 29.0231 32.5509L28.9297 31.6268L29.7473 32.0044C30.8314 30.8714 30.9159 28.9342 29.9872 27.6101C29.5429 26.9747 28.7654 26.3393 27.9123 25.9172C28.8364 26.095 29.8273 26.055 30.5471 25.8106Z" fill="url(#paint0_radial_12_1230)"/>
<path d="M21.7451 33.9328L23.9933 25.0064L22.5404 34.1061L21.7451 33.9328Z" fill="#FF1515"/>
<path d="M20.0034 33.253L23.9934 25.0064L20.7454 33.5951L20.0034 33.253Z" fill="#FF1515"/>
<path d="M18.4393 32.2133L23.9933 25.0064L19.0925 32.7065L18.4393 32.2133Z" fill="#FF1515"/>
<path d="M17.1108 30.8581L23.9933 25.0064L17.6573 31.4846L17.1108 30.8581Z" fill="#FF1515"/>
<path d="M16.0889 29.2496L23.9933 25.0064L16.4932 29.9783L16.0889 29.2496Z" fill="#FF1515"/>
<path d="M15.4091 27.4546L23.9933 25.0064L15.6623 28.2544L15.4091 27.4546Z" fill="#FF1515"/>
<path d="M15.1069 25.5529L23.9934 25.0064L15.1914 26.3882L15.1069 25.5529Z" fill="#FF1515"/>
<path d="M15.1914 23.6245L23.9934 25.0064L15.1069 24.4599L15.1914 23.6245Z" fill="#FF1515"/>
<path d="M15.6623 21.7584L23.9933 25.0064L15.4091 22.5582L15.6623 21.7584Z" fill="#FF1515"/>
<path d="M16.4932 20.0344L23.9933 25.0064L16.0889 20.7631L16.4932 20.0344Z" fill="#FF1515"/>
<path d="M17.6573 18.5282L23.9933 25.0064L17.1108 19.1547L17.6573 18.5282Z" fill="#FF1515"/>
<path d="M19.0925 17.3063L23.9933 25.0064L18.4393 17.7995L19.0925 17.3063Z" fill="#FF1515"/>
<path d="M20.7454 16.4176L23.9934 25.0064L20.0034 16.7598L20.7454 16.4176Z" fill="#FF1515"/>
<path d="M22.5404 15.9067L23.9933 25.0064L21.7451 16.08L22.5404 15.9067Z" fill="#FF1515"/>
<path d="M24.3977 15.7912L23.9933 25.0064L23.589 15.7912H24.3977Z" fill="#FF1515"/>
<path d="M26.2372 16.08L23.9933 25.0064L25.4463 15.9067L26.2372 16.08Z" fill="#FF1515"/>
<path d="M27.9789 16.7598L23.9933 25.0064L27.2413 16.4176L27.9789 16.7598Z" fill="#FF1515"/>
<path d="M29.5474 17.7995L23.9933 25.0064L28.8898 17.3063L29.5474 17.7995Z" fill="#FF1515"/>
<path d="M30.8714 19.1547L23.9933 25.0064L30.3294 18.5282L30.8714 19.1547Z" fill="#FF1515"/>
<path d="M31.8978 20.7631L23.9933 25.0064L31.4935 20.0344L31.8978 20.7631Z" fill="#FF1515"/>
<path d="M32.5776 22.5582L23.9933 25.0064L32.3244 21.7584L32.5776 22.5582Z" fill="#FF1515"/>
<path d="M32.8798 24.4599L23.9933 25.0064L32.7953 23.6245L32.8798 24.4599Z" fill="#FF1515"/>
<path d="M32.7953 26.3882L23.9933 25.0064L32.8798 25.5529L32.7953 26.3882Z" fill="#FF1515"/>
<path d="M32.3244 28.2544L23.9933 25.0064L32.5776 27.4546L32.3244 28.2544Z" fill="#FF1515"/>
<path d="M31.4935 29.9783L23.9933 25.0064L31.8978 29.2496L31.4935 29.9783Z" fill="#FF1515"/>
<path d="M30.3294 31.4846L23.9933 25.0064L30.8714 30.8581L30.3294 31.4846Z" fill="#FF1515"/>
<path d="M28.8898 32.7065L23.9933 25.0064L29.5474 32.2133L28.8898 32.7065Z" fill="#FF1515"/>
<path d="M27.2413 33.5951L23.9933 25.0064L27.9789 33.253L27.2413 33.5951Z" fill="#FF1515"/>
<path d="M25.4463 34.1061L23.9933 25.0064L26.2372 33.9328L25.4463 34.1061Z" fill="#FF1515"/>
<path d="M23.589 34.2216L23.9933 25.0064L24.3977 34.2216H23.589Z" fill="#FF1515"/>
<defs>
<radialGradient id="paint0_radial_12_1230" cx="0" cy="0" r="1" gradientUnits="userSpaceOnUse" gradientTransform="translate(23.993 23.9933) scale(8.88642)">
<stop stop-color="#D4145A"/>
<stop offset="0.1803" stop-color="#DE3B78"/>
<stop offset="0.4565" stop-color="#EC72A0"/>
<stop offset="0.6952" stop-color="#F69ABE"/>
<stop offset="0.8842" stop-color="#FDB2D0"/>
<stop offset="1" stop-color="#FFBBD7"/>
</radialGradient>
</defs>
</svg>
