<svg width="40" height="40" viewBox="0 0 40 40" fill="none" xmlns="http://www.w3.org/2000/svg">
<path d="M20 40C31.0457 40 40 31.0457 40 20C40 8.95431 31.0457 0 20 0C8.95431 0 0 8.95431 0 20C0 31.0457 8.95431 40 20 40Z" fill="#00B086"/>
<path d="M20.0058 11.601C17.0953 11.601 14.187 12.4556 11.6722 14.1659H6.9184L9.05822 16.4932C8.08326 17.3815 7.39979 18.5439 7.0976 19.8278C6.79542 21.1116 6.88864 22.4569 7.36503 23.6868C7.84143 24.9166 8.6787 25.9737 9.76687 26.719C10.855 27.4643 12.1432 27.863 13.4621 27.8627C15.1101 27.8642 16.6974 27.2409 17.9042 26.1186L19.9993 28.3991L22.0944 26.1208C23.3005 27.2419 24.8866 27.8644 26.5332 27.8627C28.2675 27.8627 29.9307 27.174 31.1573 25.9479C32.3838 24.7218 33.0731 23.0587 33.0737 21.3245C33.0747 20.4149 32.8854 19.5153 32.518 18.6832C32.1506 17.8512 31.6133 17.1052 30.9404 16.4932L33.0802 14.1659H28.3384C25.8815 12.4934 22.9779 11.5997 20.0058 11.601ZM19.9993 13.7375C21.6682 13.7375 23.3382 14.0678 24.909 14.7219C22.1173 15.7901 19.9993 18.2886 19.9993 21.1991C19.9993 18.2875 17.8824 15.7901 15.0896 14.7219C16.6453 14.0735 18.3139 13.7382 19.9993 13.7375ZM13.461 16.9009C14.0421 16.9009 14.6174 17.0154 15.1543 17.2377C15.6911 17.4601 16.1788 17.786 16.5897 18.1969C17.0006 18.6077 17.3265 19.0955 17.5488 19.6323C17.7712 20.1691 17.8857 20.7445 17.8857 21.3256C17.8857 21.9066 17.7712 22.482 17.5488 23.0188C17.3265 23.5556 17.0006 24.0434 16.5897 24.4542C16.1788 24.8651 15.6911 25.191 15.1543 25.4134C14.6174 25.6357 14.0421 25.7502 13.461 25.7502C12.2876 25.7502 11.1621 25.284 10.3324 24.4542C9.50258 23.6245 9.03641 22.499 9.03641 21.3256C9.03641 20.1521 9.50258 19.0267 10.3324 18.1969C11.1621 17.3671 12.2876 16.9009 13.461 16.9009ZM26.5332 16.9031C27.1141 16.9029 27.6892 17.0171 28.226 17.2392C28.7627 17.4612 29.2504 17.7869 29.6612 18.1974C30.0721 18.608 30.3981 19.0954 30.6205 19.632C30.843 20.1685 30.9576 20.7436 30.9578 21.3245C30.9581 21.9053 30.8439 22.4805 30.6218 23.0172C30.3997 23.5539 30.0741 24.0416 29.6635 24.4525C29.253 24.8633 28.7655 25.1893 28.229 25.4118C27.6924 25.6343 27.1173 25.7489 26.5365 25.7491C25.3634 25.7495 24.2383 25.2839 23.4085 24.4548C22.5787 23.6256 22.1123 22.5008 22.1119 21.3277C22.1114 20.1547 22.577 19.0295 23.4062 18.1997C24.2353 17.37 25.3602 16.9035 26.5332 16.9031ZM13.461 19.007C12.8458 19.007 12.2558 19.2514 11.8208 19.6864C11.3857 20.1214 11.1414 20.7114 11.1414 21.3266C11.1414 21.9419 11.3857 22.5319 11.8208 22.9669C12.2558 23.4019 12.8458 23.6463 13.461 23.6463C14.0763 23.6463 14.6663 23.4019 15.1013 22.9669C15.5363 22.5319 15.7807 21.9419 15.7807 21.3266C15.7807 20.7114 15.5363 20.1214 15.1013 19.6864C14.6663 19.2514 14.0763 19.007 13.461 19.007ZM26.5332 19.007C25.918 19.007 25.328 19.2514 24.893 19.6864C24.4579 20.1214 24.2135 20.7114 24.2135 21.3266C24.2135 21.9419 24.4579 22.5319 24.893 22.9669C25.328 23.4019 25.918 23.6463 26.5332 23.6463C27.1484 23.6463 27.7385 23.4019 28.1735 22.9669C28.6085 22.5319 28.8529 21.9419 28.8529 21.3266C28.8529 20.7114 28.6085 20.1214 28.1735 19.6864C27.7385 19.2514 27.1484 19.007 26.5332 19.007Z" fill="white"/>
<path fill-rule="evenodd" clip-rule="evenodd" d="M13.4813 21.9494C13.8561 21.9494 14.16 21.6455 14.16 21.2706C14.16 20.8958 13.8561 20.5919 13.4813 20.5919C13.1064 20.5919 12.8025 20.8958 12.8025 21.2706C12.8025 21.6455 13.1064 21.9494 13.4813 21.9494ZM13.4813 22.8544C14.3559 22.8544 15.065 22.1453 15.065 21.2706C15.065 20.396 14.3559 19.6869 13.4813 19.6869C12.6066 19.6869 11.8975 20.396 11.8975 21.2706C11.8975 22.1453 12.6066 22.8544 13.4813 22.8544Z" fill="#00B086"/>
<path fill-rule="evenodd" clip-rule="evenodd" d="M26.5259 21.9494C26.9008 21.9494 27.2047 21.6455 27.2047 21.2706C27.2047 20.8958 26.9008 20.5919 26.5259 20.5919C26.1511 20.5919 25.8472 20.8958 25.8472 21.2706C25.8472 21.6455 26.1511 21.9494 26.5259 21.9494ZM26.5259 22.8544C27.4006 22.8544 28.1097 22.1453 28.1097 21.2706C28.1097 20.396 27.4006 19.6869 26.5259 19.6869C25.6513 19.6869 24.9422 20.396 24.9422 21.2706C24.9422 22.1453 25.6513 22.8544 26.5259 22.8544Z" fill="#00B086"/>
</svg>
