<?xml version="1.0" encoding="utf-8"?>
<!-- Generator: $$$/GeneralStr/196=Adobe Illustrator 27.6.0, SVG Export Plug-In . SVG Version: 6.00 Build 0)  -->
<svg version="1.1" xmlns="http://www.w3.org/2000/svg" xmlns:xlink="http://www.w3.org/1999/xlink" x="0px" y="0px"
	 viewBox="0 0 384 357" enable-background="new 0 0 384 357" xml:space="preserve">
<g id="original" display="none">
</g>
<g id="New_design">
	<g>
		<path fill="#C12839" d="M254.4,319.4l17.9,21.9c3.8,4.7,0.5,11.6-5.5,11.6H117.2c-6,0-9.3-7-5.5-11.6l17.9-21.9H254.4z"/>
		<path fill="#C12839" d="M116.5,335.4c-3,4.1-5.4,8.5-5.8,12.7c0,0.1,0,0.3,0,0.4c-1-2.3-0.8-5.1,1-7.3L116.5,335.4z"/>
		<path fill="#C12839" d="M130.3,319.4c-1.1,0.7-1.9,1.6-2.8,2.6l2.1-2.6H130.3z"/>
		<g opacity="0.2">
			<path d="M197.2,319.4c-1.1,0.1-1.9,0.2-2.3,0.3c-7.4,0.6-14.9,1.5-22.2,2.9c-12.6,2.5-30.2,7.2-38.2,18.3
				c-2.9,4-4.2,9.3-8.8,11.8c-0.1,0.1-0.3,0.1-0.4,0.2h-8c-3.1,0-5.5-1.9-6.6-4.3c0-0.2,0-0.3,0-0.4c0.4-4.2,2.8-8.6,5.8-12.7
				L125,325c0.2-0.2,0.4-0.5,0.6-0.7c0.1-0.2,0.3-0.3,0.4-0.5l1.4-1.7c0,0,0.1-0.1,0.1-0.1c0.9-1,1.7-1.9,2.8-2.6H197.2z"/>
		</g>
		<g opacity="0.5">
			<path d="M125,325l-8.5,10.4c2.5-3.5,5.5-6.8,7.9-9.6C124.6,325.5,124.8,325.3,125,325z"/>
		</g>
		<g opacity="0.5">
			<path d="M125.3,352.9c-0.8,0.3-1.7,0.4-2.6,0.5c-1.9,0.2-3.8,0.3-5.6,0.5c-1.2,0.1-2.4,0.2-3.5-0.3c-1.9-0.8-2.9-2.9-2.9-5
				c1,2.5,3.4,4.3,6.6,4.3H125.3z"/>
		</g>
		<g opacity="0.5">
			<path d="M127.4,322.1l-1.4,1.7C126.4,323.2,126.9,322.7,127.4,322.1z"/>
		</g>
		<g>
			<path fill="#FA3A5A" d="M384,170.6v0.6c0,2.7-0.1,5.5-0.2,8.2c0,1.1-0.1,2.1-0.2,3.2c0,0.1,0,0.1,0,0.2c-0.1,1.2-0.2,2.4-0.3,3.5
				c-0.1,0.5-0.1,1.1-0.2,1.6c-0.1,0.7-0.2,1.4-0.2,2.1c-0.1,0.6-0.2,1.2-0.2,1.8c-0.1,0.7-0.2,1.4-0.3,2.2
				c-0.3,2.3-0.8,4.6-1.2,6.9c-0.1,0.6-0.2,1.2-0.4,1.8c-0.1,0.6-0.3,1.2-0.4,1.8c-0.1,0.6-0.3,1.2-0.4,1.8
				c-0.1,0.6-0.3,1.2-0.4,1.8c-0.3,1.2-0.6,2.3-0.9,3.5c-0.2,0.6-0.3,1.1-0.5,1.7c-0.2,0.6-0.3,1.1-0.5,1.7
				c-0.3,0.9-0.5,1.7-0.8,2.6c-0.2,0.6-0.4,1.2-0.6,1.7c-1,3.1-2.2,6.1-3.4,9.1c-4.1,9.9-9.3,19.3-15.3,28c-0.3,0.5-0.6,0.9-1,1.4
				c-0.1,0.1-0.1,0.1-0.2,0.2c-0.3,0.5-0.6,0.9-1,1.3c-2.1,2.9-4.3,5.7-6.7,8.5c-0.2,0.3-0.5,0.6-0.8,0.9c-1.7,2-3.4,3.9-5.2,5.8
				c-0.4,0.4-0.8,0.9-1.2,1.3c-0.8,0.9-1.7,1.7-2.6,2.6c-1,1-2,2-3.1,2.9c-0.6,0.5-1.1,1-1.7,1.6c-0.6,0.5-1.2,1-1.7,1.5
				c-1.2,1-2.4,2-3.6,3c-0.5,0.4-1.1,0.8-1.6,1.3c-1.3,1-2.6,2-3.9,3c-0.6,0.5-1.2,0.9-1.9,1.4c-1.3,0.9-2.5,1.8-3.8,2.6
				c-0.7,0.4-1.3,0.9-2,1.3c-0.6,0.4-1.2,0.8-1.8,1.1c-1.4,0.9-2.8,1.7-4.2,2.5c-0.6,0.4-1.2,0.7-1.8,1c-1.5,0.9-3,1.7-4.6,2.5
				c-0.6,0.3-1.2,0.6-1.8,0.9c-0.7,0.3-1.4,0.7-2.1,1c-0.7,0.3-1.4,0.7-2.1,1c-0.7,0.3-1.5,0.7-2.2,1c-0.7,0.3-1.4,0.6-2.1,0.9
				c-2.9,1.2-5.9,2.4-8.9,3.5c-1.2,0.4-2.3,0.8-3.5,1.2c-0.3,0.1-0.6,0.2-0.9,0.3c-0.6,0.2-1.2,0.4-1.9,0.6
				c-0.2,0.1-0.5,0.2-0.7,0.2c-1.4,0.4-2.8,0.8-4.2,1.2c-1.7,0.4-3.3,0.9-5,1.2c-0.7,0.1-1.3,0.3-2,0.4c-0.8,0.2-1.6,0.3-2.4,0.5
				c-0.8,0.2-1.6,0.3-2.4,0.5c-2.2,0.4-4.4,0.7-6.6,1h0c-1.6,0.2-3.2,0.4-4.9,0.6c-0.8,0.1-1.7,0.2-2.6,0.2c-0.4,0-0.9,0.1-1.3,0.1
				c-3.8,0.3-7.6,0.4-11.5,0.4h-84.2c-3.9,0-7.7-0.1-11.5-0.4c-0.5,0-0.9-0.1-1.3-0.1c-0.8-0.1-1.7-0.1-2.6-0.2
				c-1.5-0.1-2.9-0.3-4.3-0.5c-0.2,0-0.4,0-0.5-0.1h0c-2.2-0.3-4.4-0.6-6.6-1c-1.6-0.3-3.1-0.6-4.7-0.9c-0.7-0.2-1.5-0.3-2.2-0.5
				c-0.9-0.2-1.8-0.4-2.7-0.7c-0.7-0.2-1.4-0.4-2.1-0.5c-1.4-0.4-2.8-0.8-4.2-1.2c-0.1,0-0.3-0.1-0.4-0.1c-0.8-0.2-1.5-0.5-2.3-0.7
				c-1.5-0.5-2.9-0.9-4.3-1.4c0,0-0.1,0-0.2-0.1c-0.7-0.3-1.5-0.5-2.2-0.8c-0.7-0.3-1.5-0.5-2.2-0.8c-1.5-0.6-2.9-1.2-4.4-1.8
				c-0.7-0.3-1.4-0.6-2.2-0.9c-0.7-0.3-1.4-0.6-2.1-1c-0.7-0.3-1.4-0.7-2.1-1c-0.7-0.3-1.4-0.7-2.1-1c-0.7-0.4-1.4-0.7-2.1-1.1
				c-1.4-0.7-2.8-1.5-4.1-2.2c-0.7-0.4-1.4-0.8-2-1.2c-1.4-0.8-2.8-1.7-4.2-2.5c-0.6-0.4-1.2-0.8-1.8-1.1c-0.6-0.4-1.3-0.8-1.9-1.3
				c-0.6-0.4-1.3-0.9-1.9-1.3c-0.6-0.4-1.3-0.9-1.9-1.3c-0.6-0.5-1.3-0.9-1.9-1.4c-1.3-1-2.6-2-3.9-3c-0.5-0.4-1.1-0.8-1.6-1.3
				c-1.2-1-2.4-2-3.6-3c-0.6-0.5-1.2-1-1.7-1.5c-0.6-0.5-1.1-1-1.7-1.6c-1-1-2.1-1.9-3.1-2.9c-0.9-0.9-1.7-1.7-2.6-2.6
				c-0.4-0.4-0.8-0.9-1.2-1.3c-1.8-1.9-3.5-3.8-5.2-5.8c-0.3-0.3-0.5-0.6-0.8-0.9c-2.3-2.8-4.6-5.6-6.7-8.5c-0.3-0.4-0.6-0.9-1-1.3
				c0-0.1-0.1-0.1-0.2-0.2c-0.3-0.5-0.6-0.9-1-1.4c-6.1-8.7-11.2-18.1-15.3-28c-1.2-3-2.4-6-3.4-9.1c-0.2-0.6-0.4-1.2-0.6-1.7
				c-0.3-0.8-0.5-1.7-0.8-2.6c-0.2-0.6-0.3-1.1-0.5-1.7c-0.2-0.6-0.3-1.2-0.5-1.7c-0.3-1.2-0.6-2.3-0.9-3.5
				c-0.2-0.6-0.3-1.2-0.4-1.8c-0.1-0.6-0.3-1.2-0.4-1.8c-0.1-0.6-0.3-1.2-0.4-1.8c-0.1-0.6-0.2-1.2-0.4-1.8
				c-0.5-2.3-0.9-4.6-1.2-6.9c-0.1-0.7-0.2-1.4-0.3-2.2c-0.1-0.6-0.2-1.2-0.2-1.8c-0.1-0.7-0.2-1.4-0.2-2.1
				c-0.1-0.5-0.1-1.1-0.2-1.6c-0.1-1.2-0.2-2.4-0.3-3.5c0-0.1,0-0.1,0-0.2c-0.1-1-0.2-2.1-0.2-3.2C0.1,176.7,0,174,0,171.2v-0.6
				c0-3.4,2.8-6.2,6.2-6.2h371.7C381.2,164.5,384,167.2,384,170.6z"/>
		</g>
		<path fill="#FFC34B" d="M381,200.9c-1.9,9.5-4.7,18.6-8.3,27.4H11.3c-3.6-8.7-6.4-17.9-8.3-27.4H381z"/>
		<g opacity="0.2">
			<path d="M200.6,320.7h-50.7c-3.9,0-7.7-0.1-11.5-0.4c-0.5,0-0.9-0.1-1.3-0.1c-0.8-0.1-1.7-0.1-2.6-0.2c-1.5-0.1-2.9-0.3-4.3-0.5
				c-0.2,0-0.4,0-0.5-0.1h0c-2.2-0.3-4.4-0.6-6.6-1c-1.6-0.3-3.1-0.6-4.7-0.9c-0.7-0.2-1.5-0.3-2.2-0.5c-0.9-0.2-1.8-0.4-2.7-0.7
				c-0.7-0.2-1.4-0.4-2.1-0.5c-1.4-0.4-2.8-0.8-4.2-1.2c-0.1,0-0.3-0.1-0.4-0.1c-0.8-0.2-1.5-0.5-2.3-0.7c-1.5-0.5-2.9-0.9-4.3-1.4
				c0,0-0.1,0-0.2-0.1c-0.7-0.3-1.5-0.5-2.2-0.8c-0.7-0.3-1.5-0.5-2.2-0.8c-1.5-0.6-2.9-1.2-4.4-1.8c-0.7-0.3-1.4-0.6-2.2-0.9
				c-0.7-0.3-1.4-0.6-2.1-1c-0.7-0.3-1.4-0.7-2.1-1c-0.7-0.3-1.4-0.7-2.1-1c-0.7-0.4-1.4-0.7-2.1-1.1c-1.4-0.7-2.8-1.5-4.1-2.2
				c-0.7-0.4-1.4-0.8-2-1.2c-1.4-0.8-2.8-1.7-4.2-2.5c-0.6-0.4-1.2-0.8-1.8-1.1c-0.6-0.4-1.3-0.8-1.9-1.3c-0.6-0.4-1.3-0.9-1.9-1.3
				c-0.6-0.4-1.3-0.9-1.9-1.3c-0.6-0.5-1.3-0.9-1.9-1.4c-1.3-1-2.6-2-3.9-3c-0.5-0.4-1.1-0.8-1.6-1.3c-1.2-1-2.4-2-3.6-3
				c-0.6-0.5-1.2-1-1.7-1.5c-0.6-0.5-1.1-1-1.7-1.6c-1-1-2.1-1.9-3.1-2.9c-0.9-0.9-1.7-1.7-2.6-2.6c-0.4-0.4-0.8-0.9-1.2-1.3
				c-1.8-1.9-3.5-3.8-5.2-5.8c-0.3-0.3-0.5-0.6-0.8-0.9c-2.3-2.8-4.6-5.6-6.7-8.5c-0.3-0.4-0.6-0.9-1-1.3c0-0.1-0.1-0.1-0.2-0.2
				c-0.3-0.5-0.6-0.9-1-1.4c-6.1-8.7-11.2-18.1-15.3-28c-1.2-3-2.4-6-3.4-9.1c-0.2-0.6-0.4-1.2-0.6-1.7c-0.3-0.8-0.5-1.7-0.8-2.6
				c-0.2-0.6-0.3-1.1-0.5-1.7c-0.2-0.6-0.3-1.2-0.5-1.7c-0.3-1.2-0.6-2.3-0.9-3.5c-0.2-0.6-0.3-1.2-0.4-1.8
				c-0.1-0.6-0.3-1.2-0.4-1.8c-0.1-0.6-0.3-1.2-0.4-1.8c-0.1-0.6-0.2-1.2-0.4-1.8c-0.5-2.3-0.9-4.6-1.2-6.9
				c-0.1-0.7-0.2-1.4-0.3-2.2c-0.1-0.6-0.2-1.2-0.2-1.8c-0.1-0.7-0.2-1.4-0.2-2.1c-0.1-0.5-0.1-1.1-0.2-1.6
				c-0.1-1.2-0.2-2.4-0.3-3.5c0-0.1,0-0.1,0-0.2c-0.1-1-0.2-2.1-0.2-3.2C0.1,176.7,0,174,0,171.2v-0.6c0-3.4,2.8-6.2,6.2-6.2h44.6
				v6.8c0,1.2,0,2.3,0,3.5c0.2,6.7,0.8,13.2,1.8,19.7c0.3,2.2,0.7,4.3,1.2,6.5c0.2,1.3,0.5,2.5,0.8,3.8c1.4,6.1,3.1,12,5.3,17.8
				c0.7,2,1.5,3.9,2.3,5.8c0.6,1.5,1.3,3,1.9,4.4c16,35.4,45.5,63.5,81.9,77.7c10.9,4.3,22.5,7.3,34.5,8.9c2.7,0.4,5.4,0.7,8.2,0.9
				C192.5,320.6,196.5,320.7,200.6,320.7z"/>
		</g>
		<g>
			<path d="M236.1,140.5c0,2.8,2.3,5.1,5.1,5.1s5.1-2.3,5.1-5.1c0-9.4,3.7-13.7,8.4-19.2c5.1-6,10.8-12.7,10.8-25.9
				c0-13.2-5.7-19.9-10.8-25.9c-4.7-5.5-8.4-9.8-8.4-19.3s3.7-13.7,8.4-19.3c5.1-6,10.8-12.7,10.8-25.9c0-2.8-2.3-5.1-5.1-5.1
				c-2.8,0-5.1,2.3-5.1,5.1c0,9.4-3.7,13.7-8.4,19.3c-5.1,6-10.8,12.7-10.8,25.9s5.7,19.9,10.8,25.9c4.7,5.5,8.4,9.8,8.4,19.2
				c0,9.4-3.7,13.7-8.4,19.2C241.8,120.6,236.1,127.4,236.1,140.5z"/>
			<path d="M177.3,140.5c0,2.8,2.3,5.1,5.1,5.1c2.8,0,5.1-2.3,5.1-5.1c0-9.4,3.7-13.7,8.4-19.2c5.1-6,10.8-12.7,10.8-25.9
				c0-13.2-5.7-19.9-10.8-25.9c-4.7-5.5-8.4-9.8-8.4-19.3s3.7-13.7,8.4-19.3c5.1-6,10.8-12.7,10.8-25.9c0-2.8-2.3-5.1-5.1-5.1
				c-2.8,0-5.1,2.3-5.1,5.1c0,9.4-3.7,13.7-8.4,19.3c-5.1,6-10.8,12.7-10.8,25.9s5.7,19.9,10.8,25.9c4.7,5.5,8.4,9.8,8.4,19.2
				c0,9.4-3.7,13.7-8.4,19.2C183,120.6,177.3,127.4,177.3,140.5z"/>
			<path d="M118.5,140.5c0,2.8,2.3,5.1,5.1,5.1c2.8,0,5.1-2.3,5.1-5.1c0-9.4,3.7-13.7,8.4-19.2c5.1-6,10.8-12.7,10.8-25.9
				c0-13.2-5.7-19.9-10.8-25.9c-4.7-5.5-8.4-9.8-8.4-19.3s3.7-13.7,8.4-19.3c5.1-6,10.8-12.7,10.8-25.9c0-2.8-2.3-5.1-5.1-5.1
				s-5.1,2.3-5.1,5.1c0,9.4-3.7,13.7-8.4,19.3c-5.1,6-10.8,12.7-10.8,25.9s5.7,19.9,10.8,25.9c4.7,5.5,8.4,9.8,8.4,19.2
				c0,9.4-3.7,13.7-8.4,19.2C124.2,120.6,118.5,127.4,118.5,140.5z"/>
		</g>
		<path d="M71.2,194.4H52.5c0.3,2.2,0.7,4.3,1.2,6.5h22.4c0.1-0.4,0.2-0.9,0.2-1.4C76.3,196.7,74,194.4,71.2,194.4z M377.8,164.5
			H6.2c-3.4,0-6.2,2.8-6.2,6.2v0.6c0,2.7,0.1,5.5,0.2,8.2c0,1.1,0.1,2.1,0.2,3.2c0,0.1,0,0.1,0,0.2c0.1,1.2,0.2,2.4,0.3,3.5
			c0,0.5,0.1,1.1,0.2,1.6c0.1,0.7,0.1,1.4,0.2,2.1c0.1,0.6,0.2,1.2,0.2,1.8c0.1,0.7,0.2,1.4,0.3,2.2c0.4,2.3,0.8,4.6,1.2,6.9
			c0.1,0.6,0.2,1.2,0.4,1.8c0.1,0.6,0.3,1.2,0.4,1.8c0.1,0.6,0.3,1.2,0.4,1.8c0.1,0.6,0.3,1.2,0.4,1.8c0.3,1.2,0.6,2.3,0.9,3.5
			c0.2,0.6,0.3,1.1,0.5,1.7c0.2,0.6,0.3,1.1,0.5,1.7c0.3,0.9,0.5,1.7,0.8,2.6c0.2,0.6,0.4,1.2,0.6,1.7c1,3.1,2.2,6.1,3.4,9.1
			c4.1,9.9,9.3,19.3,15.3,28c0.3,0.5,0.6,0.9,1,1.4c0.1,0.1,0.1,0.1,0.2,0.2c0.3,0.5,0.6,0.9,1,1.3c2.1,2.9,4.4,5.7,6.7,8.5
			c0.2,0.3,0.5,0.6,0.8,0.9c1.7,2,3.5,3.9,5.2,5.8c0.4,0.4,0.8,0.9,1.2,1.3c0.8,0.9,1.7,1.7,2.6,2.6c1,1,2.1,2,3.1,2.9
			c0.6,0.5,1.1,1,1.7,1.6c0.6,0.5,1.2,1,1.7,1.5c1.2,1,2.4,2,3.6,3c0.5,0.4,1,0.8,1.6,1.3c1.3,1,2.6,2,3.9,3
			c0.6,0.5,1.2,0.9,1.9,1.4c0.6,0.5,1.3,0.9,1.9,1.3c0.6,0.4,1.3,0.9,1.9,1.3c0.6,0.4,1.3,0.9,1.9,1.3c0.6,0.4,1.2,0.8,1.8,1.1
			c1.4,0.9,2.8,1.7,4.2,2.5c0.7,0.4,1.4,0.8,2,1.2c1.3,0.8,2.7,1.5,4.1,2.2c0.7,0.4,1.4,0.7,2.1,1.1c0.7,0.3,1.4,0.7,2.1,1
			c0.7,0.3,1.4,0.7,2.1,1c0.7,0.3,1.4,0.6,2.1,1c0.7,0.3,1.4,0.6,2.2,0.9c1.4,0.6,2.9,1.2,4.4,1.8c0.7,0.3,1.5,0.6,2.2,0.8
			c0.7,0.3,1.5,0.5,2.2,0.8c0.1,0,0.1,0,0.2,0.1c1.4,0.5,2.9,1,4.3,1.4c0.8,0.2,1.5,0.5,2.3,0.7c0.1,0,0.3,0.1,0.4,0.1
			c1.4,0.4,2.8,0.8,4.2,1.2c0.7,0.2,1.4,0.4,2.1,0.5c0.9,0.2,1.8,0.4,2.7,0.7c0.7,0.2,1.5,0.3,2.2,0.5c1.6,0.3,3.1,0.6,4.7,0.9l0,0
			L107.7,337c-3,3.7-3.6,8.7-1.6,13c2.1,4.3,6.3,7,11.1,7h149.5c4.8,0,9.1-2.7,11.1-7c2.1-4.3,1.5-9.3-1.6-13L261,318.3l0,0
			c0.8-0.1,1.6-0.3,2.4-0.5c0.8-0.1,1.6-0.3,2.4-0.5c0.7-0.1,1.3-0.3,2-0.4c1.7-0.4,3.4-0.8,5-1.2c1.4-0.4,2.8-0.8,4.2-1.2
			c0.2-0.1,0.5-0.1,0.7-0.2c0.6-0.2,1.2-0.4,1.9-0.6c0.3-0.1,0.6-0.2,0.9-0.3c1.2-0.4,2.3-0.8,3.5-1.2c3-1.1,6-2.2,8.9-3.5
			c0.7-0.3,1.4-0.6,2.1-0.9c0.8-0.3,1.5-0.7,2.2-1c0.7-0.3,1.4-0.7,2.1-1c0.7-0.3,1.4-0.7,2.1-1c0.6-0.3,1.2-0.6,1.8-0.9
			c1.6-0.8,3.1-1.6,4.6-2.5c0.6-0.3,1.2-0.7,1.8-1c1.4-0.8,2.8-1.7,4.2-2.5c0.6-0.4,1.2-0.8,1.8-1.1c0.7-0.4,1.3-0.8,2-1.3
			c1.3-0.9,2.6-1.7,3.8-2.6c0.6-0.5,1.2-0.9,1.9-1.4c1.3-1,2.6-2,3.9-3c0.5-0.4,1.1-0.8,1.6-1.3c1.2-1,2.4-2,3.6-3
			c0.6-0.5,1.2-1,1.7-1.5c0.6-0.5,1.1-1,1.7-1.6c1.1-1,2.1-1.9,3.1-2.9c0.9-0.9,1.7-1.7,2.6-2.6c0.4-0.4,0.8-0.9,1.2-1.3
			c1.8-1.9,3.6-3.8,5.2-5.8c0.3-0.3,0.5-0.6,0.8-0.9c2.3-2.8,4.6-5.6,6.7-8.5c0.3-0.4,0.7-0.9,1-1.3c0-0.1,0.1-0.1,0.2-0.2
			c0.3-0.5,0.6-0.9,1-1.4c6.1-8.7,11.2-18.1,15.3-28c1.2-3,2.4-6,3.4-9.1c0.2-0.6,0.4-1.2,0.6-1.7c0.3-0.8,0.6-1.7,0.8-2.6
			c0.2-0.6,0.3-1.1,0.5-1.7c0.2-0.6,0.3-1.2,0.5-1.7c0.3-1.2,0.6-2.3,0.9-3.5c0.1-0.6,0.3-1.2,0.4-1.8c0.1-0.6,0.3-1.2,0.4-1.8
			c0.1-0.6,0.3-1.2,0.4-1.8c0.1-0.6,0.2-1.2,0.4-1.8c0.5-2.3,0.9-4.6,1.2-6.9c0.1-0.7,0.2-1.4,0.3-2.2c0.1-0.6,0.2-1.2,0.2-1.8
			c0.1-0.7,0.2-1.4,0.2-2.1c0.1-0.5,0.1-1.1,0.2-1.6c0.1-1.2,0.2-2.4,0.3-3.5c0-0.1,0-0.1,0-0.2c0.1-1,0.2-2.1,0.2-3.2
			c0.2-2.7,0.2-5.4,0.2-8.2v-0.6C384,167.2,381.2,164.5,377.8,164.5z M268.6,345.6c-0.2,0.4-0.7,1.1-1.8,1.1H117.2
			c-1.1,0-1.6-0.7-1.8-1.1c-0.2-0.4-0.4-1.3,0.3-2.1l17.9-21.9c0.4-0.5,0.7-1,0.9-1.6c0.8,0.1,1.7,0.2,2.6,0.2
			c0.4,0,0.9,0.1,1.3,0.1c3.8,0.3,7.6,0.4,11.5,0.4h84.2c3.9,0,7.7-0.1,11.5-0.4c0.4,0,0.9-0.1,1.3-0.1c0.8-0.1,1.7-0.1,2.6-0.2
			c0.2,0.6,0.5,1.1,0.9,1.6l17.9,21.9C269,344.3,268.8,345.2,268.6,345.6z M332.8,269.7c-12.8,12.8-27.8,22.8-44.4,29.9
			c-17.2,7.3-35.5,10.9-54.3,10.9h-84.2c-1.4,0-2.7,0-4.1-0.1c-17.4-0.5-34.3-4.1-50.3-10.9c-16.6-7-31.6-17.1-44.4-29.9
			c-10.9-10.9-19.8-23.3-26.6-37h334.8C352.6,246.4,343.7,258.8,332.8,269.7z M96,204.7h273.7c-1.5,6-3.4,12-5.7,17.8H20
			c-2.3-5.8-4.2-11.8-5.7-17.8h56.8c2.4,0,4.4-1.6,5-3.8c0.1-0.4,0.2-0.9,0.2-1.4c0-2.8-2.3-5.1-5.2-5.1h-59
			c-1.1-6.5-1.7-13-1.9-19.7h363.3c-0.2,6.6-0.8,13.2-1.9,19.7H96c-2.8,0-5.1,2.3-5.1,5.1c0,0.5,0.1,0.9,0.2,1.4
			C91.6,203.1,93.6,204.7,96,204.7z"/>
	</g>
</g>
<g id="Capa_3">
</g>
</svg>
