<?xml version="1.0" encoding="utf-8"?>
<!-- Generator: $$$/GeneralStr/196=Adobe Illustrator 27.6.0, SVG Export Plug-In . SVG Version: 6.00 Build 0)  -->
<svg version="1.1" xmlns="http://www.w3.org/2000/svg" xmlns:xlink="http://www.w3.org/1999/xlink" x="0px" y="0px"
	 viewBox="0 0 384 357" enable-background="new 0 0 384 357" xml:space="preserve">
<g id="original" display="none">
</g>
<g id="New_design">
	<g>
		<g>
			<path fill="#FFFFFF" d="M236,274c0.6-0.8,1.2-1.7,1.8-2.5c0.4-0.5,0.8-1.1,1.1-1.6c1.5-2.2,3-4.4,4.4-6.6
				c0.5-0.8,1.1-1.7,1.6-2.5c1.1-1.7,2.1-3.4,3.2-5.1c1.9-3.1,3.8-6.3,5.6-9.5c0.3-0.6,0.6-1.2,1-1.8c0.6-1.1,1.2-2.2,1.8-3.3
				c0.4-0.8,0.8-1.5,1.2-2.3c0,0,0,0,0,0c0.4-0.7,0.7-1.3,1-2c0.6-1.1,1.1-2.3,1.7-3.4c0.3-0.6,0.6-1.2,0.9-1.9
				c0.1-0.2,0.2-0.4,0.3-0.6c0.3-0.7,0.6-1.3,0.9-2c0.1-0.2,0.2-0.4,0.3-0.6c0.3-0.7,0.6-1.4,0.9-2c0.1-0.2,0.2-0.4,0.3-0.6
				c0.3-0.7,0.6-1.3,0.9-2c0.3-0.7,0.6-1.5,0.9-2.2c0.3-0.6,0.5-1.2,0.8-1.9c0.3-0.7,0.6-1.4,0.9-2.2c0.3-0.7,0.5-1.3,0.8-2
				c1.8-4.5,3.4-9,5-13.6c0.6-1.7,1.1-3.4,1.7-5.1c0.6-2,1.3-4.1,1.9-6.1c0.2-0.6,0.3-1.2,0.5-1.7c0.2-0.6,0.3-1.2,0.5-1.8
				c0.2-0.9,0.5-1.7,0.7-2.6c0.2-0.6,0.3-1.2,0.5-1.7c0.4-1.3,0.7-2.6,1-4c0.2-0.7,0.3-1.4,0.5-2c0.2-0.6,0.3-1.3,0.5-1.9
				c0.2-0.7,0.3-1.4,0.5-2.1c0.1-0.6,0.3-1.3,0.4-1.9c0-0.1,0-0.1,0-0.2c2.3,0.7,4.7,1.7,6.9,3.2c0.8,0.5,1.6,1.1,2.4,1.7
				c5.4,4.4,9.6,10.7,11.2,17.2c5.6,23.1-1.7,50.2-18.2,67.5h0c-2.7,2.8-5.6,5.4-8.5,7.5c-1.8,1.3-3.9,2.6-6.2,3.8
				c-1.7,0.9-3.4,1.7-5.2,2.5c-10.8,4.6-20.5,5.6-25.9,2.7C236.7,275.7,236.1,274.8,236,274z"/>
			<path fill="#FFFFFF" d="M258.9,338.3C258.9,338.3,258.9,338.3,258.9,338.3c-0.2,0.1-0.4,0.2-0.7,0.3l-0.4,0.2
				c-14.5,5.9-29.5,8.5-43.8,7.8c-1.8-0.1-3.7-0.2-5.5-0.4c-0.1,0-0.1,0-0.2,0c-0.4,0-0.8-0.1-1.3-0.2c-0.4-0.1-0.8-0.1-1.3-0.2
				c-0.1,0-0.2,0-0.2,0c0,0,0,0-0.1,0c-0.8-0.1-1.6-0.3-2.5-0.4c-0.4-0.1-0.8-0.1-1.2-0.2l-0.1,0c-0.5-0.1-0.9-0.2-1.4-0.3
				c0,0-0.1,0-0.1,0c-0.4-0.1-0.7-0.2-1.1-0.3c-0.8-0.2-1.5-0.4-2.3-0.6c-0.1,0-0.3-0.1-0.4-0.1c-0.4-0.1-0.8-0.2-1.2-0.3
				c-0.4-0.1-0.8-0.2-1.1-0.3c-0.9-0.3-1.8-0.6-2.7-0.9c-0.7-0.3-1.4-0.5-2.1-0.8c-0.5-0.2-1.1-0.4-1.6-0.6
				c-0.3-0.1-0.5-0.2-0.9-0.4c-1-0.4-2-0.9-3-1.3l-1.1-0.5c-0.4-0.2-0.8-0.4-1.2-0.6c-0.4-0.2-0.8-0.4-1.2-0.6
				c-0.3-0.2-0.6-0.3-0.9-0.5l-0.3-0.2c-0.1,0-0.1-0.1-0.2-0.1c-0.2-0.1-0.4-0.2-0.6-0.4l-0.3-0.2c-0.4-0.2-0.8-0.5-1.2-0.7
				c-0.4-0.2-0.8-0.5-1.2-0.7c-0.3-0.2-0.5-0.3-0.8-0.5c0,0,0.1,0,0.1-0.1c1.4-0.9,2.9-1.9,4.4-2.9c0.5-0.3,1-0.7,1.4-1
				c2.4-1.7,4.9-3.5,7.3-5.4c0.7-0.6,1.4-1.1,2.1-1.7c0.7-0.6,1.4-1.2,2.1-1.7c1.7-1.4,3.3-2.8,4.8-4.1c0.5-0.5,1.1-0.9,1.6-1.4
				c0.7-0.6,1.4-1.3,2.1-1.9c0.7-0.6,1.4-1.3,2.1-1.9c0.7-0.7,1.4-1.3,2.1-2l0.1-0.1c0.6-0.5,1.1-1.1,1.6-1.6
				c0.6-0.6,1.3-1.2,1.9-1.9c0.3-0.3,0.7-0.7,1-1c0.5-0.5,1.1-1.1,1.6-1.6c0,0,0,0,0,0c0.6-0.6,1.2-1.2,1.8-1.9
				c0.5-0.5,1-1.1,1.5-1.6c0.5-0.6,1-1.1,1.5-1.7c0.6-0.6,1.1-1.2,1.6-1.8l0.2-0.2c0,0,0,0,0-0.1c0.2-0.2,0.3-0.4,0.5-0.6
				c0.5-0.6,1-1.2,1.5-1.7c1.2-1.3,2.4-2.7,3.5-4.1c0.5-0.6,0.9-1.1,1.3-1.6c1.6-1.9,3.1-3.8,4.6-5.8c1.1,1.1,2.5,2.1,4.1,3
				c3.9,2.1,8.3,2.9,12.6,2.9c6,0,12-1.5,16.9-3.1c2-0.7,3.7-1.4,5.3-2c4.9-2.1,9.7-4.7,13.4-7.4c3.5-2.5,6.9-5.5,10-8.8
				c18.8-19.7,27.1-50.7,20.7-77.1c-2.4-9.9-9.1-19.3-17.9-25.1c-0.8-0.5-1.6-1-2.5-1.5c-2.6-1.4-5.4-2.5-8.1-3.2
				c3.2-17.3,4.8-34.7,4.8-51.6c0-1.1,0-2.1,0-3.1v-0.3c0-0.9,0-1.8-0.1-2.7l0-0.8c0-0.8,0-1.6-0.1-2.5c0-1.2-0.1-2.3-0.2-3.5v-0.1
				c0-0.4,0-0.8-0.1-1.2v-0.1c0-0.7-0.1-1.4-0.1-2c-0.1-1-0.1-1.9-0.2-2.9c0,0,0-0.1,0-0.1c-0.1-1-0.2-2.1-0.3-3.1
				c-0.1-0.7-0.1-1.4-0.2-2.1c-0.1-0.7-0.1-1.4-0.2-2.1v0c-0.1-0.6-0.1-1.3-0.2-1.9c-0.1-0.7-0.2-1.5-0.3-2.2
				c-0.1-0.4-0.1-0.9-0.2-1.3c-0.1-0.8-0.2-1.6-0.3-2.3c-0.1-0.8-0.2-1.6-0.4-2.4c-0.1-0.4-0.1-0.8-0.2-1.1
				c-0.1-0.6-0.2-1.2-0.3-1.7c-0.2-1.1-0.4-2.2-0.6-3.3c-0.2-0.8-0.3-1.6-0.5-2.4c0-0.2-0.1-0.4-0.1-0.6c-0.2-0.8-0.3-1.5-0.5-2.3
				c0,0,0-0.1,0-0.1c0,0,0,0,0-0.1c-0.5-2.1-1.1-4.2-1.6-6.3c0.2,0,0.5-0.1,0.7-0.1c0,0,0.1,0,0.1,0l0.2,0c1.1-0.2,2.2-0.5,3.2-0.7
				c0.1,0,0.1,0,0.2,0c22.3-4.3,39.2-2.6,50.3,5c27.6,19.1,34.8,62.9,36.6,87.4C379.4,227.2,331.3,308.3,258.9,338.3z"/>
			<path fill="#FFCF6D" d="M284.3,260.1L284.3,260.1c-2.7,2.8-5.6,5.4-8.5,7.5c-1.8,1.3-3.9,2.6-6.2,3.8c-1.7,0.9-3.4,1.7-5.2,2.5
				c-10.8,4.6-20.5,5.6-25.9,2.7c-1.7-0.9-2.3-1.8-2.4-2.7c0.6-0.8,1.2-1.7,1.8-2.5c0.4-0.5,0.8-1.1,1.1-1.6c1.5-2.2,3-4.4,4.4-6.6
				c0.5-0.8,1.1-1.7,1.6-2.5c1.1-1.7,2.1-3.4,3.2-5.1c1.9-3.1,3.8-6.3,5.6-9.5c0.3-0.6,0.6-1.2,1-1.8c0.6-1.1,1.2-2.2,1.8-3.3
				c0.4-0.8,0.8-1.5,1.2-2.3c0,0,0,0,0,0c0.4-0.7,0.7-1.3,1-2c0.6-1.1,1.1-2.3,1.7-3.4c0.3-0.6,0.6-1.2,0.9-1.9
				c0.1-0.2,0.2-0.4,0.3-0.6c0.3-0.7,0.6-1.3,0.9-2c0.1-0.2,0.2-0.4,0.3-0.6c0.3-0.7,0.6-1.4,0.9-2c0.1-0.2,0.2-0.4,0.3-0.6
				c0.3-0.7,0.6-1.3,0.9-2c0.3-0.7,0.6-1.5,0.9-2.2c0.3-0.6,0.5-1.2,0.8-1.9c0.3-0.7,0.6-1.4,0.9-2.2c0.3-0.7,0.5-1.3,0.8-2
				c1.8-4.5,3.4-9,5-13.6c0.6-1.7,1.1-3.4,1.7-5.1c0.6-2,1.3-4.1,1.9-6.1c0.2-0.6,0.3-1.2,0.5-1.7c0.2-0.6,0.3-1.2,0.5-1.8
				c0.2-0.9,0.5-1.7,0.7-2.6c0.2-0.6,0.3-1.2,0.5-1.7c0.4-1.3,0.7-2.6,1-4c0.2-0.7,0.3-1.4,0.5-2c0.2-0.6,0.3-1.3,0.5-1.9
				c0.2-0.7,0.3-1.4,0.5-2.1c0.1-0.6,0.3-1.3,0.4-1.9c0-0.1,0-0.1,0-0.2c2.3,0.7,4.7,1.7,6.9,3.2c0.8,0.5,1.6,1.1,2.4,1.7
				c5.4,4.4,9.6,10.7,11.2,17.2C308,215.7,300.7,242.8,284.3,260.1z"/>
			<g>
				<path d="M383.5,144.9c-2-26.3-10-73.6-41-95.1c-13.4-9.3-32.9-11.5-58-6.7c-1.2,0.2-2.4,0.5-3.7,0.7l-0.3,0.1
					c-2,0.4-4.2,0.9-6.3,1.5c-1.4,0.3-2.6,1.3-3.3,2.5c-0.7,1.3-0.8,2.7-0.4,4.1c1.1,3.3,2.1,6.9,3,10.6c0,0.1,0.1,0.3,0.1,0.4
					c0.2,0.6,0.3,1.3,0.4,2c0,0,0,0.1,0,0.1c0,0.1,0,0.2,0.1,0.3c0,0.1,0,0.1,0,0.2c0.2,0.7,0.3,1.5,0.5,2.2c0.2,1,0.4,2,0.6,3.2
					c0.1,0.5,0.2,1,0.3,1.6c0,0,0,0.1,0,0.1c0.1,0.3,0.1,0.7,0.2,1c0.1,0.8,0.2,1.5,0.4,2.3c0.1,0.7,0.2,1.4,0.3,2.2
					c0,0,0,0.1,0,0.1c0.1,0.4,0.1,0.7,0.2,1.1c0.1,0.7,0.2,1.4,0.3,2.1c0,0,0,0.1,0,0.1c0.1,0.6,0.1,1.1,0.2,1.7l0,0.1
					c0,0,0,0,0,0.1c0.1,0.6,0.1,1.2,0.2,1.9c0,0,0,0.1,0,0.1c0.1,0.7,0.1,1.4,0.2,2.1c0.1,1,0.2,1.9,0.2,2.9c0,0.1,0,0.1,0,0.2
					c0.1,0.9,0.1,1.8,0.2,2.7c0,0.7,0.1,1.3,0.1,2l0,0.1c0,0.3,0,0.7,0.1,1v0.1c0.1,1.1,0.1,2.2,0.2,3.3c0,0.8,0.1,1.6,0.1,2.4
					l0,0.8c0,0.9,0,1.7,0,2.6v0.2c0,1,0,2,0,3.1c0,18-1.9,36.5-5.6,55c-6.3,31.5-17.9,61.4-33.3,86.4c-3.3,5.3-6.7,10.5-10.1,15.4
					c-0.9,1.2-1.7,2.4-2.6,3.6c0,0,0,0,0,0c-3.2,4.4-6.5,8.7-9.9,12.8c-0.4,0.5-0.8,1-1.3,1.5c-1.1,1.3-2.2,2.7-3.4,4
					c-0.5,0.6-1,1.1-1.4,1.6c0,0-0.1,0.1-0.1,0.1c-0.1,0.1-0.2,0.3-0.4,0.5l-0.2,0.2c-0.5,0.6-1,1.2-1.6,1.8c-0.5,0.5-0.9,1-1.4,1.6
					c0,0,0,0,0,0.1c-0.5,0.5-0.9,1-1.4,1.5c0,0,0,0-0.1,0.1c-0.5,0.6-1.1,1.1-1.6,1.7c0,0-0.1,0.1-0.1,0.1c-0.5,0.5-1,1-1.5,1.5
					c0,0,0,0-0.1,0.1c-0.3,0.3-0.6,0.6-0.9,0.9c-0.6,0.6-1.2,1.2-1.8,1.8c-0.5,0.5-1,1-1.6,1.5c0,0,0,0-0.1,0.1l-0.1,0.1
					c-0.6,0.6-1.3,1.2-2,1.9c-0.7,0.6-1.3,1.2-2,1.9c-0.7,0.6-1.3,1.2-2,1.8c0,0,0,0-0.1,0c-0.5,0.4-0.9,0.9-1.5,1.3
					c-1.4,1.3-3,2.6-4.6,3.9c-0.7,0.6-1.3,1.1-2,1.7c-0.7,0.6-1.4,1.1-2,1.6c-2.3,1.8-4.6,3.5-6.9,5.1c0,0,0,0-0.1,0.1
					c-0.4,0.3-0.8,0.6-1.3,0.9c-1.4,1-2.8,1.9-4.2,2.8c-0.7,0.4-1.4,0.9-2.1,1.3c-0.7,0.4-1.4,0.9-2.1,1.3c-0.7,0.4-1.4,0.8-2.1,1.3
					c-1.4,0.9-2.4,2.4-2.5,4c-0.1,1.7,0.6,3.3,1.9,4.4c0.3,0.2,0.6,0.5,0.9,0.7l0.3,0.2c0.1,0,0.1,0.1,0.2,0.1
					c0.9,0.7,1.7,1.3,2.4,1.8c0.8,0.6,1.7,1.2,2.6,1.8c0.4,0.3,0.9,0.6,1.4,0.9c0.4,0.3,0.9,0.5,1.3,0.8c0.4,0.3,0.9,0.5,1.4,0.8
					l0.3,0.2c0.3,0.2,0.5,0.3,0.8,0.5c0.1,0.1,0.2,0.1,0.3,0.2l0.1,0.1c0.4,0.2,0.8,0.4,1.2,0.6c0.5,0.3,0.9,0.5,1.4,0.7
					c0.5,0.2,0.9,0.5,1.4,0.7l1.1,0.5c1.1,0.5,2.3,1.1,3.4,1.5c0.3,0.1,0.7,0.3,1,0.4c0.6,0.2,1.2,0.5,1.8,0.7
					c0.8,0.3,1.7,0.6,2.5,0.9c1,0.3,2,0.7,3,1c0.4,0.1,0.9,0.3,1.3,0.4c0.5,0.1,1,0.3,1.4,0.4c0,0,0.1,0,0.1,0c0.1,0,0.1,0,0.2,0
					c0.9,0.2,1.8,0.4,2.6,0.6c0.5,0.1,0.9,0.2,1.4,0.3c0.5,0.1,1.1,0.2,1.7,0.3l0.1,0c0.5,0.1,0.9,0.2,1.4,0.3
					c0.9,0.2,1.8,0.3,2.7,0.4c0.1,0,0.2,0,0.4,0.1c0.5,0.1,1,0.1,1.4,0.2c0.5,0.1,0.9,0.1,1.4,0.2c0,0,0.1,0,0.1,0
					c3.7,0.4,7.5,0.6,11.3,0.6c14.2,0,28.9-2.9,43.1-8.7l0.4-0.1c0.3-0.1,0.5-0.2,0.8-0.3c37.3-15.5,70-44.9,92-82.7
					C376.4,228.2,386.5,185.5,383.5,144.9z M237.8,271.4c0.4-0.5,0.8-1.1,1.1-1.6c1.5-2.2,3-4.4,4.4-6.6c0.5-0.8,1.1-1.7,1.6-2.5
					c1.1-1.7,2.1-3.4,3.2-5.1c1.9-3.1,3.8-6.3,5.6-9.5c0.3-0.6,0.6-1.2,1-1.8c0.6-1.1,1.2-2.2,1.8-3.3c0.4-0.8,0.8-1.5,1.2-2.3
					c0,0,0,0,0,0c0.4-0.7,0.7-1.3,1-2c0.6-1.1,1.1-2.3,1.7-3.4c0.3-0.6,0.6-1.2,0.9-1.9c0.1-0.2,0.2-0.4,0.3-0.6
					c0.3-0.7,0.6-1.3,0.9-2c0.1-0.2,0.2-0.4,0.3-0.6c0.3-0.7,0.6-1.4,0.9-2c0.1-0.2,0.2-0.4,0.3-0.6c0.3-0.7,0.6-1.3,0.9-2
					c0.3-0.7,0.6-1.5,0.9-2.2c0.3-0.6,0.5-1.2,0.8-1.9c0.3-0.7,0.6-1.4,0.9-2.2c0.3-0.7,0.5-1.3,0.8-2c1.8-4.5,3.4-9,5-13.6
					c0.6-1.7,1.1-3.4,1.7-5.1c0.6-2,1.3-4.1,1.9-6.1c0.2-0.6,0.3-1.2,0.5-1.7c0.2-0.6,0.3-1.2,0.5-1.8c0.2-0.9,0.5-1.7,0.7-2.6
					c0.2-0.6,0.3-1.2,0.5-1.7c0.4-1.3,0.7-2.6,1-4c0.2-0.7,0.3-1.4,0.5-2c0.2-0.6,0.3-1.3,0.5-1.9c0.2-0.7,0.3-1.4,0.5-2.1
					c0.1-0.6,0.3-1.3,0.4-1.9c0-0.1,0-0.1,0-0.2c2.3,0.7,4.7,1.7,6.9,3.2c0.8,0.5,1.6,1.1,2.4,1.7c5.4,4.4,9.6,10.7,11.2,17.2
					c5.6,23.1-1.7,50.2-18.2,67.5h0c-2.7,2.8-5.6,5.4-8.5,7.5c-1.8,1.3-3.9,2.6-6.2,3.8c-1.7,0.9-3.4,1.7-5.2,2.5
					c-10.8,4.6-20.5,5.6-25.9,2.7c-1.7-0.9-2.3-1.8-2.4-2.7C236.6,273.1,237.2,272.3,237.8,271.4z M258.9,338.3
					C258.9,338.3,258.9,338.3,258.9,338.3c-0.2,0.1-0.4,0.2-0.7,0.3l-0.4,0.2c-14.5,5.9-29.5,8.5-43.8,7.8c-1.8-0.1-3.7-0.2-5.5-0.4
					c-0.1,0-0.1,0-0.2,0c-0.4,0-0.8-0.1-1.3-0.2c-0.4-0.1-0.8-0.1-1.3-0.2c-0.1,0-0.2,0-0.2,0c0,0,0,0-0.1,0
					c-0.8-0.1-1.6-0.3-2.5-0.4c-0.4-0.1-0.8-0.1-1.2-0.2l-0.1,0c-0.5-0.1-0.9-0.2-1.4-0.3c0,0-0.1,0-0.1,0c-0.4-0.1-0.7-0.2-1.1-0.3
					c-0.8-0.2-1.5-0.4-2.3-0.6c-0.1,0-0.3-0.1-0.4-0.1c-0.4-0.1-0.8-0.2-1.2-0.3c-0.4-0.1-0.8-0.2-1.1-0.3c-0.9-0.3-1.8-0.6-2.7-0.9
					c-0.7-0.3-1.4-0.5-2.1-0.8c-0.5-0.2-1.1-0.4-1.6-0.6c-0.3-0.1-0.5-0.2-0.9-0.4c-1-0.4-2-0.9-3-1.3l-1.1-0.5
					c-0.4-0.2-0.8-0.4-1.2-0.6c-0.4-0.2-0.8-0.4-1.2-0.6c-0.3-0.2-0.6-0.3-0.9-0.5l-0.3-0.2c-0.1,0-0.1-0.1-0.2-0.1
					c-0.2-0.1-0.4-0.2-0.6-0.4l-0.3-0.2c-0.4-0.2-0.8-0.5-1.2-0.7c-0.4-0.2-0.8-0.5-1.2-0.7c-0.3-0.2-0.5-0.3-0.8-0.5
					c0,0,0.1,0,0.1-0.1c1.4-0.9,2.9-1.9,4.4-2.9c0.5-0.3,1-0.7,1.4-1c2.4-1.7,4.9-3.5,7.3-5.4c0.7-0.6,1.4-1.1,2.1-1.7
					c0.7-0.6,1.4-1.2,2.1-1.7c1.7-1.4,3.3-2.8,4.8-4.1c0.5-0.5,1.1-0.9,1.6-1.4c0.7-0.6,1.4-1.3,2.1-1.9c0.7-0.6,1.4-1.3,2.1-1.9
					c0.7-0.7,1.4-1.3,2.1-2l0.1-0.1c0.6-0.5,1.1-1.1,1.6-1.6c0.6-0.6,1.3-1.2,1.9-1.9c0.3-0.3,0.7-0.7,1-1c0.5-0.5,1.1-1.1,1.6-1.6
					c0,0,0,0,0,0c0.6-0.6,1.2-1.2,1.8-1.9c0.5-0.5,1-1.1,1.5-1.6c0.5-0.6,1-1.1,1.5-1.7c0.6-0.6,1.1-1.2,1.6-1.8l0.2-0.2
					c0,0,0,0,0-0.1c0.2-0.2,0.3-0.4,0.5-0.6c0.5-0.6,1-1.2,1.5-1.7c1.2-1.3,2.4-2.7,3.5-4.1c0.5-0.6,0.9-1.1,1.3-1.6
					c1.6-1.9,3.1-3.8,4.6-5.8c1.1,1.1,2.5,2.1,4.1,3c3.9,2.1,8.3,2.9,12.6,2.9c6,0,12-1.5,16.9-3.1c2-0.7,3.7-1.4,5.3-2
					c4.9-2.1,9.7-4.7,13.4-7.4c3.5-2.5,6.9-5.5,10-8.8c18.8-19.7,27.1-50.7,20.7-77.1c-2.4-9.9-9.1-19.3-17.9-25.1
					c-0.8-0.5-1.6-1-2.5-1.5c-2.6-1.4-5.4-2.5-8.1-3.2c3.2-17.3,4.8-34.7,4.8-51.6c0-1.1,0-2.1,0-3.1v-0.3c0-0.9,0-1.8-0.1-2.7
					l0-0.8c0-0.8,0-1.6-0.1-2.5c0-1.2-0.1-2.3-0.2-3.5v-0.1c0-0.4,0-0.8-0.1-1.2v-0.1c0-0.7-0.1-1.4-0.1-2c-0.1-1-0.1-1.9-0.2-2.9
					c0,0,0-0.1,0-0.1c-0.1-1-0.2-2.1-0.3-3.1c-0.1-0.7-0.1-1.4-0.2-2.1c-0.1-0.7-0.1-1.4-0.2-2.1v0c-0.1-0.6-0.1-1.3-0.2-1.9
					c-0.1-0.7-0.2-1.5-0.3-2.2c-0.1-0.4-0.1-0.9-0.2-1.3c-0.1-0.8-0.2-1.6-0.3-2.3c-0.1-0.8-0.2-1.6-0.4-2.4
					c-0.1-0.4-0.1-0.8-0.2-1.1c-0.1-0.6-0.2-1.2-0.3-1.7c-0.2-1.1-0.4-2.2-0.6-3.3c-0.2-0.8-0.3-1.6-0.5-2.4c0-0.2-0.1-0.4-0.1-0.6
					c-0.2-0.8-0.3-1.5-0.5-2.3c0,0,0-0.1,0-0.1c0,0,0,0,0-0.1c-0.5-2.1-1.1-4.2-1.6-6.3c0.2,0,0.5-0.1,0.7-0.1c0,0,0.1,0,0.1,0
					l0.2,0c1.1-0.2,2.2-0.5,3.2-0.7c0.1,0,0.1,0,0.2,0c22.3-4.3,39.2-2.6,50.3,5c27.6,19.1,34.8,62.9,36.6,87.4
					C379.4,227.2,331.3,308.3,258.9,338.3z"/>
			</g>
		</g>
		<path fill="#FFFFFF" d="M283.7,106c0,17.7-1.9,36.4-5.6,55c-6.4,31.5-17.9,61.4-33.3,86.4c-4.1,6.6-8.4,13-12.7,19
			c-37.1,51.1-82.6,78.6-125.4,78.6c-14,0-27.7-2.9-40.8-9c-3.7-1.7-7.4-3.7-11-5.9c-20.2-12.5-34.3-33.7-40.7-61.2
			c-10.9-47.4,2.2-108.3,34.3-158.9c16.7-26.3,39.4-48.9,66.1-66c13.2-8.5,27.3-15.6,42.1-21.2c21.9-8.3,43.9-12.6,62.7-12.6
			c13.4,0,25.2,2.2,34,6.6c12.4,6.2,22.3,24.7,27.1,50.7C282.6,79.6,283.7,92.5,283.7,106z"/>
		<ellipse fill="#FFCF6D" cx="126.5" cy="212.4" rx="63.2" ry="65.5"/>
		<path d="M126.5,136.6c-40.5,0-73.5,34-73.5,75.8s33,75.8,73.5,75.8s73.5-34,73.5-75.8S167,136.6,126.5,136.6z M126.5,277.9
			c-34.8,0-63.2-29.4-63.2-65.5c0-36.1,28.3-65.5,63.2-65.5s63.2,29.4,63.2,65.5C189.7,248.6,161.4,277.9,126.5,277.9z"/>
		<g opacity="0.1">
			<path d="M26.8,217.4c-1,27.4,2.2,55.2,12,80.9c4.2,11.2,18.6,29.5,25.4,39.4c-3.7-1.7-7.4-3.7-11-6
				c-20.2-12.5-34.3-33.8-40.6-61.5c-10.9-47.6,2.2-108.8,34.3-159.6c16.6-26.4,39.4-49.1,66-66.3c-0.6,0.6-1.1,1.2-1.7,1.8
				C65.4,94,29.2,151.3,26.8,217.4z"/>
		</g>
		<path d="M290.5,65.8c-5.5-29.6-17.1-50.2-32.6-58c-24-12.1-64.2-10-105,5.5c-47,17.8-87.2,50.3-113.2,91.3
			C23,130.9,10.9,160.3,4.8,189.7c-6.1,29-6.4,57.2-0.7,81.6c7,30.3,22.6,53.7,45.3,67.7c17.6,10.9,36.9,16.4,56.9,16.4
			c13.2,0,26.7-2.4,40.3-7.1c34-11.9,66.5-38.1,93.8-75.7c4.5-6.2,8.9-12.8,13.2-19.7c16.1-26.1,28.1-57.1,34.7-89.8
			C295,129.1,295.8,94.5,290.5,65.8z M106.6,345.1c-18,0-35.6-4.9-51.8-14.9c-20.2-12.5-34.3-33.7-40.7-61.2
			c-10.9-47.4,2.2-108.3,34.3-158.9c24.9-39.2,63.3-70.2,108.2-87.2c21.9-8.3,43.9-12.6,62.7-12.6c13.4,0,25.2,2.2,34,6.6
			c12.4,6.2,22.3,24.7,27.1,50.7c2.2,11.9,3.3,24.9,3.3,38.4c0,17.7-1.9,36.4-5.6,55c-6.4,31.5-17.9,61.4-33.3,86.4
			c-4.1,6.6-8.4,13-12.7,19C194.8,317.6,149.4,345.1,106.6,345.1z"/>
	</g>
</g>
<g id="Capa_3">
</g>
</svg>
