<?xml version="1.0" encoding="utf-8"?>
<!-- Generator: $$$/GeneralStr/196=Adobe Illustrator 27.6.0, SVG Export Plug-In . SVG Version: 6.00 Build 0)  -->
<svg version="1.1" xmlns="http://www.w3.org/2000/svg" xmlns:xlink="http://www.w3.org/1999/xlink" x="0px" y="0px"
	 viewBox="0 0 384 357" enable-background="new 0 0 384 357" xml:space="preserve">
<g id="original" display="none">
</g>
<g id="New_design">
	<g>
		<g>
			<g>
				<path fill="#AC3542" d="M122.4,119.7c-2,0-3.9-1.1-4.7-3.1L74.5,18.1c-1.1-2.6,0-5.6,2.6-6.8c2.6-1.1,5.6,0,6.8,2.6l43.2,98.5
					c1.1,2.6,0,5.6-2.6,6.8C123.8,119.5,123.1,119.7,122.4,119.7z"/>
				<path d="M79.2,10.9c2,0,3.9,1.1,4.7,3.1l43.2,98.5c1.1,2.6,0,5.6-2.6,6.8c-0.7,0.3-1.4,0.4-2.1,0.4c-2,0-3.9-1.1-4.7-3.1
					L74.5,18.1c-1.1-2.6,0-5.6,2.6-6.8C77.8,11.1,78.5,10.9,79.2,10.9L79.2,10.9z M79.2,0L79.2,0c-2.2,0-4.4,0.5-6.5,1.3
					c-8.1,3.6-11.9,13-8.3,21.2l43.2,98.5c2.6,5.9,8.4,9.6,14.8,9.6c2.2,0,4.4-0.5,6.5-1.3c8.1-3.6,11.9-13,8.3-21.2L94,9.6
					C91.4,3.8,85.6,0,79.2,0L79.2,0z"/>
			</g>
			<g>
				<g>
					<path fill="#AC3542" d="M106.5,133.3c-0.6,4-2.8,7.5-6,9.9c-2.6,1.9-5.7,2.9-8.9,2.9c-4.8,0-9.4-2.3-12.2-6.2L11.4,47.6
						c-2.4-3.3-3.4-7.3-2.8-11.3c0.6-4,2.8-7.5,6-9.9c2.6-1.9,5.7-2.9,8.9-2.9c4.8,0,9.4,2.3,12.2,6.2l67.9,92.3
						C106.1,125.3,107.1,129.3,106.5,133.3z"/>
				</g>
				<path d="M23.7,33.5c1.6,0,3.1,0.7,4.2,2.1l67.9,92.3c1.7,2.3,1.2,5.5-1.1,7.2c-0.9,0.7-2,1-3,1c-1.6,0-3.1-0.7-4.2-2.1
					L19.5,41.7c-1.7-2.3-1.2-5.5,1.1-7.2C21.5,33.8,22.6,33.5,23.7,33.5L23.7,33.5z M23.7,22.6L23.7,22.6c-3.4,0-6.7,1.1-9.5,3.1
					c-3.5,2.5-5.7,6.3-6.4,10.5c-0.7,4.2,0.4,8.5,2.9,11.9l67.9,92.3c3,4.1,7.9,6.6,13,6.6c3.4,0,6.7-1.1,9.5-3.1
					c7.2-5.2,8.7-15.3,3.5-22.5L36.7,29.1C33.6,25,28.8,22.6,23.7,22.6L23.7,22.6z"/>
			</g>
			<g>
				<ellipse fill="#FFA201" cx="190.6" cy="168.2" rx="96" ry="95.7"/>
				<path d="M190.6,269.1c-55.8,0-101.1-45.3-101.1-100.9S134.9,67.4,190.6,67.4s101.1,45.3,101.1,100.9S246.4,269.1,190.6,269.1z
					 M190.6,77.6c-50.1,0-90.9,40.7-90.9,90.6c0,50,40.8,90.6,90.9,90.6s90.9-40.7,90.9-90.6C281.5,118.3,240.7,77.6,190.6,77.6z"/>
				<path d="M190.6,252c-46.3,0-84-37.6-84-83.8s37.7-83.8,84-83.8s84,37.6,84,83.8S236.9,252,190.6,252z M190.6,94.7
					c-40.6,0-73.7,33-73.7,73.5c0,40.5,33.1,73.5,73.7,73.5s73.7-33,73.7-73.5C264.3,127.7,231.3,94.7,190.6,94.7z"/>
				<path d="M190.6,234.9c-36.9,0-66.9-29.9-66.9-66.7s30-66.7,66.9-66.7s66.9,29.9,66.9,66.7S227.5,234.9,190.6,234.9z
					 M190.6,111.8c-31.2,0-56.6,25.3-56.6,56.4c0,31.1,25.4,56.4,56.6,56.4s56.6-25.3,56.6-56.4
					C247.2,137.1,221.8,111.8,190.6,111.8z"/>
			</g>
			<g>
				<path fill="#FFA201" d="M360.7,210h-192c0-6,0.6-11.9,1.6-17.6c1-5.3,2.4-10.5,4.3-15.5c1-2.6,2-5.2,3.2-7.7
					c1.6-3.4,3.5-6.8,5.5-10c1.3-2,2.6-4,4-5.9c1-1.4,2.1-2.8,3.3-4.2c1.1-1.3,2.2-2.6,3.4-3.9c17.5-19,42.7-31,70.7-31
					C317.7,114.2,360.7,157.1,360.7,210z"/>
				<path d="M264.7,109.1c-29.2,0-55.6,12.4-74.1,32.2c-1.2,1.2-2.3,2.5-3.4,3.8c-1.1,1.3-2.2,2.7-3.3,4.1c-1.4,1.9-2.8,3.8-4,5.8
					c-2,3-3.8,6.2-5.5,9.5c-1.2,2.3-2.3,4.7-3.2,7.1c-1.7,4.1-3.1,8.3-4.3,12.7c-2.2,8.2-3.3,16.9-3.3,25.8h10.3
					c0-9.3,1.4-18.2,4-26.7c0.9-3,2-6,3.3-8.8c1.6-3.7,3.4-7.3,5.5-10.7c1.3-2.1,2.6-4.2,4.1-6.2c1-1.5,2.1-2.9,3.3-4.3
					c1.1-1.4,2.2-2.7,3.4-4c16.6-18.4,40.7-29.9,67.4-29.9c50.1,0,90.8,40.7,90.8,90.6h10.3C365.8,154.3,320.5,109.1,264.7,109.1z"
					/>
				<path d="M264.7,126.2c-25.2,0-47.9,11.2-63.3,28.8c-1.2,1.3-2.3,2.7-3.4,4.2c-1.2,1.5-2.2,3-3.3,4.5c-1.5,2.2-2.8,4.4-4,6.8
					c-2.2,4-4,8.2-5.5,12.5c-1.4,4.1-2.5,8.4-3.3,12.8c-0.8,4.6-1.2,9.4-1.2,14.2H191c0-9.5,1.8-18.6,5.1-27c1.2-3,2.5-5.8,4.1-8.5
					c1-1.8,2.1-3.6,3.3-5.3c1.1-1.6,2.2-3.2,3.4-4.7c13.5-17.1,34.4-28,57.9-28c40.6,0,73.7,33,73.7,73.5h10.3
					C348.7,163.8,311,126.2,264.7,126.2z"/>
				<path d="M264.7,143.3c-22.5,0-42.5,11.2-54.6,28.2c-1.2,1.7-2.4,3.5-3.4,5.3c-1.2,2.1-2.3,4.2-3.2,6.4c-1.8,4-3.1,8.2-4.1,12.5
					c-1,4.6-1.5,9.3-1.5,14.2h10.3c0-6.1,1-12.1,2.8-17.6c0.9-2.8,2.1-5.6,3.4-8.2c9.4-18.2,28.4-30.6,50.3-30.6
					c31.2,0,56.6,25.3,56.6,56.4h10.3C331.5,173.2,301.5,143.3,264.7,143.3z"/>
			</g>
			<g>
				<path fill="#FFA201" d="M212.6,210h-192c0-52.9,43-95.8,96-95.8c28,0,53.1,11.9,70.7,31c1.2,1.3,2.3,2.5,3.4,3.9
					c1.1,1.4,2.2,2.8,3.3,4.2c1.4,1.9,2.8,3.9,4.1,5.9c2,3.2,3.8,6.5,5.5,10c1.2,2.5,2.3,5.1,3.2,7.7c1.8,5,3.3,10.2,4.3,15.5
					C212,198.1,212.6,203.9,212.6,210z"/>
				<path d="M214.4,184.2c-1.2-4.3-2.6-8.6-4.3-12.7c-1-2.4-2.1-4.8-3.2-7.1c-1.7-3.3-3.5-6.4-5.5-9.5c-1.3-2-2.6-3.9-4-5.8
					c-1-1.4-2.1-2.8-3.3-4.1c-1.1-1.3-2.2-2.6-3.4-3.8c-18.5-19.8-44.9-32.2-74.1-32.2c-55.8,0-101.1,45.2-101.1,100.9h10.3
					c0-50,40.8-90.6,90.9-90.6c26.7,0,50.8,11.5,67.4,29.9c1.2,1.3,2.3,2.6,3.4,4c1.1,1.4,2.2,2.8,3.3,4.3c1.4,2,2.8,4.1,4,6.2
					c2,3.4,3.9,7,5.5,10.7c1.2,2.9,2.3,5.8,3.3,8.8c2.6,8.4,4,17.4,4,26.7h10.3C217.7,201,216.6,192.4,214.4,184.2z"/>
				<path d="M199.4,195.8c-0.8-4.4-1.8-8.7-3.3-12.8c-1.5-4.4-3.3-8.5-5.5-12.5c-1.2-2.3-2.6-4.6-4.1-6.8c-1-1.5-2.1-3.1-3.3-4.5
					c-1.1-1.4-2.2-2.8-3.4-4.2c-15.4-17.7-38.1-28.8-63.3-28.8c-46.3,0-84,37.6-84,83.8h10.3c0-40.5,33.1-73.5,73.7-73.5
					c23.4,0,44.3,11,57.9,28c1.2,1.5,2.3,3.1,3.4,4.7c1.2,1.7,2.2,3.5,3.3,5.3c1.5,2.8,2.9,5.6,4.1,8.5c3.3,8.3,5.1,17.5,5.1,27
					h10.3C200.6,205.1,200.2,200.4,199.4,195.8z"/>
				<path d="M181.9,195.8c-0.9-4.3-2.3-8.5-4.1-12.5c-1-2.2-2-4.4-3.2-6.4c-1-1.8-2.2-3.6-3.4-5.3c-12.1-17.1-32.1-28.2-54.6-28.2
					c-36.9,0-66.9,29.9-66.9,66.7H60c0-31.1,25.4-56.4,56.6-56.4c21.9,0,40.9,12.5,50.3,30.6c1.4,2.6,2.5,5.3,3.4,8.2
					c1.8,5.5,2.8,11.5,2.8,17.6h10.3C183.4,205.1,182.9,200.3,181.9,195.8z"/>
			</g>
		</g>
		<path fill="#C12839" d="M254.4,318.4l17.9,21.9c3.8,4.7,0.5,11.6-5.5,11.6H117.2c-6,0-9.3-7-5.5-11.6l17.9-21.9H254.4z"/>
		<path fill="#C12839" d="M116.5,334.4c-3,4.1-5.4,8.5-5.8,12.7c0,0.1,0,0.3,0,0.4c-1-2.3-0.8-5.1,1-7.3L116.5,334.4z"/>
		<path fill="#C12839" d="M130.3,318.4c-1.1,0.7-1.9,1.6-2.8,2.6l2.1-2.6H130.3z"/>
		<g opacity="0.2">
			<path d="M197.2,318.4c-1.1,0.1-1.9,0.2-2.3,0.3c-7.4,0.6-14.9,1.5-22.2,2.9c-12.6,2.5-30.2,7.2-38.2,18.3
				c-2.9,4-4.2,9.3-8.8,11.8c-0.1,0.1-0.3,0.1-0.4,0.2h-8c-3.1,0-5.5-1.9-6.6-4.3c0-0.2,0-0.3,0-0.4c0.4-4.2,2.8-8.6,5.8-12.7
				L125,324c0.2-0.2,0.4-0.5,0.6-0.7c0.1-0.2,0.3-0.3,0.4-0.5l1.4-1.7c0,0,0.1-0.1,0.1-0.1c0.9-1,1.7-1.9,2.8-2.6H197.2z"/>
		</g>
		<g opacity="0.5">
			<path d="M125,324l-8.5,10.4c2.5-3.5,5.5-6.8,7.9-9.6C124.6,324.5,124.8,324.3,125,324z"/>
		</g>
		<g opacity="0.5">
			<path d="M125.3,351.9c-0.8,0.3-1.7,0.4-2.6,0.5c-1.9,0.2-3.8,0.3-5.6,0.5c-1.2,0.1-2.4,0.2-3.5-0.3c-1.9-0.8-2.9-2.9-2.9-5
				c1,2.5,3.4,4.3,6.6,4.3H125.3z"/>
		</g>
		<g opacity="0.5">
			<path d="M127.4,321.1l-1.4,1.7C126.4,322.2,126.9,321.6,127.4,321.1z"/>
		</g>
		<g>
			<path fill="#FA3A5A" d="M384,170.6v0.6c0,1.1,0,2.2,0,3.3c0,0.2,0,0.4,0,0.5c0,0.8,0,1.5-0.1,2.3c0,0.5,0,1-0.1,1.5
				c0,0.8-0.1,1.7-0.2,2.5c-0.1,1-0.1,2.1-0.2,3.2c0,0.1,0,0.1,0,0.2c-0.1,0.9-0.2,1.8-0.3,2.7c0,0.3-0.1,0.6-0.1,0.8
				c0,0.1,0,0.3,0,0.4c-0.1,0.9-0.2,1.8-0.3,2.7c-0.2,1.1-0.3,2.2-0.5,3.3c-0.2,1.1-0.4,2.2-0.6,3.3c-0.2,1.1-0.4,2.2-0.6,3.2
				c-0.2,1.1-0.5,2.2-0.7,3.2c-0.2,1.1-0.5,2.1-0.8,3.2c-0.3,1.1-0.5,2.1-0.8,3.2c-0.3,1-0.5,2-0.8,3c0,0.1-0.1,0.3-0.1,0.4
				c-0.3,1-0.6,2-0.9,2.9c0,0.1,0,0.1-0.1,0.2c-0.3,0.9-0.6,1.8-0.9,2.7c-0.8,2.3-1.6,4.5-2.5,6.7c-0.3,0.7-0.5,1.3-0.8,2
				c-0.2,0.3-0.3,0.7-0.4,1c-0.4,0.9-0.7,1.7-1.1,2.6c-0.4,1-0.9,2-1.4,2.9c-0.4,0.9-0.9,1.8-1.3,2.7c-0.6,1.2-1.2,2.4-1.9,3.6
				c-0.4,0.8-0.8,1.5-1.2,2.2c0,0.1-0.1,0.1-0.1,0.2c-0.5,0.9-1,1.8-1.5,2.6c-0.4,0.7-0.8,1.4-1.2,2.1c-0.2,0.3-0.4,0.7-0.6,1
				c-0.5,0.8-1,1.6-1.5,2.4c-0.6,0.9-1.2,1.8-1.8,2.7c-1.8,2.7-3.8,5.3-5.7,7.9c-0.5,0.6-1,1.2-1.5,1.8c-0.1,0.1-0.2,0.2-0.3,0.4
				c-0.3,0.4-0.6,0.8-1,1.2c-0.4,0.5-0.9,1.1-1.3,1.6c-0.5,0.7-1.1,1.3-1.7,2c-1.4,1.6-2.9,3.2-4.3,4.7c-0.3,0.4-0.7,0.7-1.1,1.1
				c-0.5,0.5-1,1-1.5,1.5c-0.8,0.8-1.5,1.5-2.3,2.2c-0.8,0.7-1.5,1.5-2.3,2.2c-0.2,0.2-0.4,0.4-0.6,0.5c-0.6,0.5-1.2,1.1-1.8,1.6
				c-1.6,1.4-3.3,2.8-4.9,4.2c-0.5,0.4-1,0.8-1.6,1.2c-0.5,0.4-0.9,0.7-1.4,1.1c-0.7,0.5-1.4,1-2.1,1.6c0,0,0,0,0,0
				c-0.9,0.6-1.7,1.2-2.6,1.9c-0.9,0.6-1.7,1.2-2.6,1.8c0,0,0,0,0,0c-0.9,0.6-1.8,1.2-2.7,1.8c-0.9,0.6-1.8,1.1-2.7,1.7
				c-0.7,0.5-1.5,0.9-2.2,1.3c-0.2,0.1-0.4,0.2-0.6,0.4c-0.8,0.5-1.6,0.9-2.4,1.3c-0.2,0.1-0.5,0.3-0.8,0.4
				c-0.8,0.5-1.6,0.9-2.5,1.3c0,0-0.1,0.1-0.2,0.1c-0.8,0.4-1.7,0.9-2.5,1.3c-0.2,0.1-0.5,0.2-0.7,0.3c-0.8,0.4-1.6,0.8-2.4,1.2
				c-0.8,0.4-1.7,0.8-2.6,1.2c-0.2,0.1-0.3,0.1-0.5,0.2c-0.8,0.3-1.5,0.7-2.3,1c-0.4,0.2-0.9,0.4-1.3,0.5c-0.8,0.3-1.6,0.6-2.3,1
				c-1,0.4-2,0.8-3,1.2c-2,0.7-3.9,1.4-6,2.1c-0.2,0.1-0.4,0.1-0.5,0.2c-0.7,0.2-1.5,0.5-2.2,0.7c-0.3,0.1-0.5,0.2-0.8,0.2
				c-0.2,0-0.3,0.1-0.5,0.1c-0.8,0.2-1.7,0.5-2.5,0.7c-0.8,0.2-1.6,0.4-2.4,0.6c-0.4,0.1-0.8,0.2-1.2,0.3c-0.9,0.2-1.9,0.5-2.8,0.7
				c-1.1,0.2-2.2,0.5-3.2,0.7c0,0,0,0,0,0c-1.1,0.2-2.2,0.4-3.3,0.6c-3.8,0.7-7.6,1.2-11.5,1.6c-0.8,0.1-1.7,0.2-2.6,0.2
				c-0.4,0-0.9,0.1-1.3,0.1c-3.8,0.3-7.7,0.4-11.5,0.4h-84.2c-3.9,0-7.7-0.1-11.5-0.4c-0.5,0-0.9-0.1-1.3-0.1
				c-0.8-0.1-1.7-0.1-2.6-0.2c-3.9-0.4-7.7-0.9-11.5-1.6c-1.1-0.2-2.2-0.4-3.3-0.6c0,0,0,0,0,0c-2.1-0.4-4.2-0.9-6.2-1.4
				c-0.1,0-0.2-0.1-0.4-0.1c-1-0.2-2-0.5-3-0.8c-1-0.3-1.9-0.5-2.8-0.8c-0.2-0.1-0.5-0.1-0.7-0.2c-0.8-0.2-1.7-0.5-2.5-0.8
				c-0.2-0.1-0.3-0.1-0.5-0.2c-2-0.6-4-1.3-6-2.1c-2-0.7-3.9-1.5-5.8-2.3c-0.1-0.1-0.2-0.1-0.4-0.1c-0.9-0.4-1.9-0.8-2.8-1.2
				c-1-0.4-2-0.9-2.9-1.3c-0.8-0.4-1.6-0.8-2.4-1.2c-0.2-0.1-0.5-0.2-0.7-0.3c-0.9-0.4-1.7-0.9-2.5-1.3c0,0-0.1-0.1-0.2-0.1
				c-0.8-0.4-1.6-0.9-2.5-1.3c-0.2-0.1-0.5-0.2-0.7-0.4c-0.8-0.5-1.7-0.9-2.5-1.4c-0.9-0.5-1.9-1.1-2.8-1.6
				c-0.9-0.6-1.8-1.1-2.7-1.7c-0.9-0.6-1.8-1.2-2.7-1.8h0c-0.9-0.6-1.8-1.2-2.6-1.8c-0.9-0.6-1.7-1.2-2.6-1.9
				c-0.7-0.5-1.4-1-2.1-1.6c-0.5-0.4-0.9-0.7-1.4-1.1c-0.5-0.4-1-0.8-1.5-1.2c-0.9-0.7-1.8-1.5-2.6-2.2c-0.8-0.6-1.5-1.3-2.2-1.9
				c-0.8-0.7-1.6-1.4-2.4-2.1c-0.8-0.7-1.6-1.4-2.3-2.2c-0.8-0.7-1.5-1.5-2.3-2.2c-0.5-0.5-1-1-1.5-1.5c-0.4-0.4-0.7-0.7-1.1-1.1
				c-1.5-1.5-2.9-3.1-4.3-4.7c-0.6-0.7-1.1-1.3-1.7-2c-0.4-0.5-0.9-1-1.3-1.6c-0.3-0.4-0.7-0.8-1-1.2c-0.1-0.1-0.2-0.2-0.3-0.4
				c-0.5-0.6-1-1.2-1.5-1.8c-2-2.6-3.9-5.2-5.7-7.9c-0.6-0.9-1.2-1.8-1.8-2.7c-0.5-0.8-1-1.6-1.5-2.4c-0.2-0.3-0.4-0.7-0.6-1
				c-0.4-0.7-0.8-1.4-1.2-2.1c-0.5-0.9-1-1.7-1.5-2.6c0-0.1-0.1-0.1-0.1-0.2c-0.4-0.7-0.8-1.5-1.2-2.2c-0.7-1.2-1.3-2.4-1.9-3.6
				c-0.4-0.9-0.9-1.8-1.3-2.7c-0.5-1-0.9-2-1.4-2.9c-0.4-0.8-0.8-1.7-1.1-2.6c-0.1-0.3-0.3-0.7-0.4-1c-0.3-0.7-0.5-1.3-0.8-2
				c-0.9-2.2-1.7-4.4-2.5-6.7c-0.3-0.9-0.6-1.8-0.9-2.7c0-0.1,0-0.1-0.1-0.2c-0.3-1-0.6-1.9-0.9-2.9c0-0.1-0.1-0.3-0.1-0.4
				c-0.3-1-0.6-2-0.8-3c-0.3-1.1-0.6-2.1-0.8-3.2c-0.3-1.1-0.5-2.1-0.8-3.2c-0.2-1.1-0.5-2.2-0.7-3.2c-0.2-1.1-0.4-2.2-0.6-3.2
				c-0.2-1.1-0.4-2.2-0.6-3.3c-0.2-1.1-0.3-2.2-0.5-3.3c-0.1-0.9-0.2-1.8-0.3-2.7c0-0.1,0-0.3,0-0.4c0-0.3-0.1-0.6-0.1-0.8
				c-0.1-0.9-0.2-1.8-0.3-2.7c0-0.1,0-0.1,0-0.2c-0.1-1-0.2-2.1-0.2-3.2c-0.1-0.9-0.1-1.7-0.1-2.5c0-0.5-0.1-1-0.1-1.5
				c0-0.8-0.1-1.5-0.1-2.3c0-0.2,0-0.4,0-0.5c0-1.1,0-2.2,0-3.3v-0.6c0-3.4,2.8-6.2,6.2-6.2h371.7C381.2,164.5,384,167.2,384,170.6z
				"/>
		</g>
		<path fill="#FFC34B" d="M381.3,199.9c-1.8,9.5-4.6,18.6-8.1,27.4H10.9c-3.6-8.7-6.3-17.9-8.1-27.4H381.3z"/>
		<g opacity="0.2">
			<path d="M200.6,320.7h-50.7c-3.9,0-7.7-0.1-11.5-0.4c-0.5,0-0.9-0.1-1.3-0.1c-0.8-0.1-1.7-0.1-2.6-0.2c-3.9-0.4-7.7-0.9-11.5-1.6
				c-1.1-0.2-2.2-0.4-3.3-0.6c0,0,0,0,0,0c-2.1-0.4-4.2-0.9-6.2-1.4c-0.1,0-0.2-0.1-0.4-0.1c-1-0.2-2-0.5-3-0.8
				c-1-0.3-1.9-0.5-2.8-0.8c-0.2-0.1-0.5-0.1-0.7-0.2c-0.8-0.2-1.7-0.5-2.5-0.8c-0.2-0.1-0.3-0.1-0.5-0.2c-2-0.6-4-1.3-6-2.1
				c-2-0.7-3.9-1.5-5.8-2.3c-0.1-0.1-0.2-0.1-0.4-0.1c-0.9-0.4-1.9-0.8-2.8-1.2c-1-0.4-2-0.9-2.9-1.3c-0.8-0.4-1.6-0.8-2.4-1.2
				c-0.2-0.1-0.5-0.2-0.7-0.3c-0.9-0.4-1.7-0.9-2.5-1.3c0,0-0.1-0.1-0.2-0.1c-0.8-0.4-1.6-0.9-2.5-1.3c-0.2-0.1-0.5-0.2-0.7-0.4
				c-0.8-0.5-1.7-0.9-2.5-1.4c-0.9-0.5-1.9-1.1-2.8-1.6c-0.9-0.6-1.8-1.1-2.7-1.7c-0.9-0.6-1.8-1.2-2.7-1.8h0
				c-0.9-0.6-1.8-1.2-2.6-1.8c-0.9-0.6-1.7-1.2-2.6-1.9c-0.7-0.5-1.4-1-2.1-1.6c-0.5-0.4-0.9-0.7-1.4-1.1c-0.5-0.4-1-0.8-1.5-1.2
				c-0.9-0.7-1.8-1.5-2.6-2.2c-0.8-0.6-1.5-1.3-2.2-1.9c-0.8-0.7-1.6-1.4-2.4-2.1c-0.8-0.7-1.6-1.4-2.3-2.2
				c-0.8-0.7-1.5-1.5-2.3-2.2c-0.5-0.5-1-1-1.5-1.5c-0.4-0.4-0.7-0.7-1.1-1.1c-1.5-1.5-2.9-3.1-4.3-4.7c-0.6-0.7-1.1-1.3-1.7-2
				c-0.4-0.5-0.9-1-1.3-1.6c-0.3-0.4-0.7-0.8-1-1.2c-0.1-0.1-0.2-0.2-0.3-0.4c-0.5-0.6-1-1.2-1.5-1.8c-2-2.6-3.9-5.2-5.7-7.9
				c-0.6-0.9-1.2-1.8-1.8-2.7c-0.5-0.8-1-1.6-1.5-2.4c-0.2-0.3-0.4-0.7-0.6-1c-0.4-0.7-0.8-1.4-1.2-2.1c-0.5-0.9-1-1.7-1.5-2.6
				c0-0.1-0.1-0.1-0.1-0.2c-0.4-0.7-0.8-1.5-1.2-2.2c-0.7-1.2-1.3-2.4-1.9-3.6c-0.4-0.9-0.9-1.8-1.3-2.7c-0.5-1-0.9-2-1.4-2.9
				c-0.4-0.8-0.8-1.7-1.1-2.6c-0.1-0.3-0.3-0.7-0.4-1c-0.3-0.7-0.5-1.3-0.8-2c-0.9-2.2-1.7-4.4-2.5-6.7c-0.3-0.9-0.6-1.8-0.9-2.7
				c0-0.1,0-0.1-0.1-0.2c-0.3-1-0.6-1.9-0.9-2.9c0-0.1-0.1-0.3-0.1-0.4c-0.3-1-0.6-2-0.8-3c-0.3-1.1-0.6-2.1-0.8-3.2
				c-0.3-1.1-0.5-2.1-0.8-3.2c-0.2-1.1-0.5-2.2-0.7-3.2c-0.2-1.1-0.4-2.2-0.6-3.2c-0.2-1.1-0.4-2.2-0.6-3.3
				c-0.2-1.1-0.3-2.2-0.5-3.3c-0.1-0.9-0.2-1.8-0.3-2.7c0-0.1,0-0.3,0-0.4c0-0.3-0.1-0.6-0.1-0.8c-0.1-0.9-0.2-1.8-0.3-2.7
				c0-0.1,0-0.1,0-0.2c-0.1-1-0.2-2.1-0.2-3.2c-0.1-0.9-0.1-1.7-0.1-2.5c0-0.5-0.1-1-0.1-1.5c0-0.8-0.1-1.5-0.1-2.3
				c0-0.2,0-0.4,0-0.5c0-1.1,0-2.2,0-3.3v-0.6c0-3.4,2.8-6.2,6.2-6.2h44.6v6.8c0,1.2,0,2.3,0,3.5c0.2,6.7,0.8,13.2,1.8,19.7
				c0.5,3.5,1.2,6.9,2,10.3c1.4,6.1,3.1,12,5.3,17.8c1.3,3.5,2.7,6.9,4.2,10.2c16,35.4,45.5,63.5,81.9,77.7
				C162.8,317.1,181.3,320.7,200.6,320.7z"/>
		</g>
		<g>
			<path d="M377.8,164.5H6.2c-3.4,0-6.2,2.8-6.2,6.2v0.6c0,1.1,0,2.2,0,3.3c0,0.2,0,0.4,0,0.5c0,0.8,0,1.5,0.1,2.3
				c0,0.5,0,1,0.1,1.5c0,0.8,0.1,1.7,0.1,2.5c0.1,1,0.2,2.1,0.2,3.2c0,0.1,0,0.1,0,0.2c0.1,0.9,0.2,1.8,0.3,2.7
				c0,0.3,0.1,0.6,0.1,0.8c0,0.1,0,0.3,0,0.4c0.1,0.9,0.2,1.8,0.3,2.7c0.1,1.1,0.3,2.2,0.5,3.3c0.2,1.1,0.4,2.2,0.6,3.3
				c0.2,1.1,0.4,2.2,0.6,3.2c0.2,1.1,0.5,2.2,0.7,3.2c0.2,1.1,0.5,2.1,0.8,3.2c0.3,1.1,0.5,2.1,0.8,3.2c0.3,1,0.5,2,0.8,3
				c0,0.1,0.1,0.3,0.1,0.4c0.3,1,0.6,2,0.9,2.9c0,0.1,0,0.1,0.1,0.2c0.3,0.9,0.6,1.8,0.9,2.7c0.8,2.3,1.6,4.5,2.5,6.7
				c0.3,0.7,0.5,1.3,0.8,2c0.2,0.3,0.3,0.7,0.4,1c0.4,0.9,0.7,1.7,1.1,2.6c0.4,1,0.9,2,1.4,2.9c0.4,0.9,0.9,1.8,1.3,2.7
				c0.6,1.2,1.2,2.4,1.9,3.6c0.4,0.8,0.8,1.5,1.2,2.2c0,0.1,0.1,0.1,0.1,0.2c0.5,0.9,1,1.8,1.5,2.6c0.4,0.7,0.8,1.4,1.2,2.1
				c0.2,0.3,0.4,0.7,0.6,1c0.5,0.8,1,1.6,1.5,2.4c0.6,0.9,1.2,1.8,1.8,2.7c1.8,2.7,3.8,5.3,5.7,7.9c0.5,0.6,1,1.2,1.5,1.8
				c0.1,0.1,0.2,0.2,0.3,0.4c0.3,0.4,0.7,0.8,1,1.2c0.4,0.5,0.9,1.1,1.3,1.6c0.5,0.7,1.1,1.3,1.7,2c1.4,1.6,2.9,3.2,4.3,4.7
				c0.4,0.4,0.7,0.7,1.1,1.1c0.5,0.5,1,1,1.5,1.5c0.8,0.8,1.5,1.5,2.3,2.2c0.8,0.7,1.5,1.5,2.3,2.2c0.8,0.7,1.6,1.4,2.4,2.1
				c0.7,0.7,1.5,1.3,2.2,1.9c0.9,0.7,1.8,1.5,2.6,2.2c0.5,0.4,1,0.8,1.5,1.2c0.5,0.4,0.9,0.7,1.4,1.1c0.7,0.5,1.4,1.1,2.1,1.6
				c0.8,0.6,1.7,1.3,2.6,1.9c0.9,0.6,1.8,1.2,2.6,1.8h0c0.9,0.6,1.8,1.2,2.7,1.8c0.9,0.6,1.8,1.1,2.7,1.7c0.9,0.6,1.8,1.1,2.8,1.6
				c0.8,0.5,1.7,1,2.5,1.4c0.2,0.1,0.4,0.2,0.7,0.4c0.8,0.5,1.6,0.9,2.5,1.3c0.1,0,0.1,0.1,0.2,0.1c0.8,0.4,1.7,0.9,2.5,1.3
				c0.2,0.1,0.5,0.2,0.7,0.3c0.8,0.4,1.6,0.8,2.4,1.2c1,0.5,2,0.9,2.9,1.3c0.9,0.4,1.9,0.8,2.8,1.2c0.1,0,0.2,0.1,0.4,0.1
				c1.9,0.8,3.9,1.6,5.8,2.3c2,0.7,4,1.4,6,2.1c0.2,0,0.3,0.1,0.5,0.2c0.8,0.3,1.6,0.5,2.5,0.8c0.2,0.1,0.5,0.1,0.7,0.2
				c1,0.3,1.9,0.5,2.8,0.8c1,0.3,2,0.5,3,0.8c0.1,0,0.2,0.1,0.4,0.1c2.1,0.5,4.1,1,6.2,1.4c0,0,0,0,0,0c1.1,0.2,2.2,0.4,3.3,0.6l0,0
				L107.7,337c-3,3.7-3.6,8.7-1.6,13c2.1,4.3,6.3,7,11.1,7h149.5c4.8,0,9.1-2.7,11.1-7c2.1-4.3,1.5-9.3-1.6-13L261,318.3l0,0
				c1.1-0.2,2.2-0.4,3.3-0.6c0,0,0,0,0,0c1.1-0.2,2.1-0.4,3.2-0.7c0.9-0.2,1.9-0.4,2.8-0.7c0.4-0.1,0.8-0.2,1.2-0.3
				c0.8-0.2,1.6-0.4,2.4-0.6c0.8-0.2,1.7-0.5,2.5-0.7c0.1,0,0.3-0.1,0.5-0.1c0.3-0.1,0.5-0.2,0.8-0.2c0.7-0.2,1.5-0.5,2.2-0.7
				c0.2-0.1,0.3-0.1,0.5-0.2c2-0.6,4-1.3,6-2.1c1-0.4,2-0.8,3-1.2c0.8-0.3,1.6-0.6,2.3-1c0.4-0.2,0.9-0.4,1.3-0.5
				c0.8-0.3,1.5-0.7,2.3-1c0.2-0.1,0.3-0.1,0.5-0.2c0.9-0.4,1.7-0.8,2.6-1.2c0.8-0.4,1.6-0.8,2.4-1.2c0.2-0.1,0.5-0.2,0.7-0.3
				c0.8-0.4,1.7-0.9,2.5-1.3c0.1,0,0.1-0.1,0.2-0.1c0.8-0.4,1.6-0.9,2.5-1.3c0.2-0.1,0.5-0.3,0.8-0.4c0.8-0.4,1.6-0.9,2.4-1.3
				c0.2-0.1,0.4-0.2,0.6-0.4c0.8-0.4,1.5-0.9,2.2-1.3c0.9-0.6,1.8-1.1,2.7-1.7c0.9-0.6,1.8-1.2,2.7-1.8c0,0,0,0,0,0
				c0.9-0.6,1.8-1.2,2.6-1.8c0.9-0.6,1.7-1.2,2.6-1.9c0,0,0,0,0,0c0.7-0.5,1.4-1,2.1-1.6c0.5-0.4,1-0.7,1.4-1.1
				c0.5-0.4,1-0.8,1.6-1.2c1.7-1.4,3.3-2.7,4.9-4.2c0.6-0.5,1.2-1,1.8-1.6c0.2-0.2,0.4-0.3,0.6-0.5c0.8-0.7,1.6-1.4,2.3-2.2
				c0.8-0.7,1.5-1.5,2.3-2.2c0.5-0.5,1-1,1.5-1.5c0.4-0.4,0.7-0.7,1.1-1.1c1.5-1.5,2.9-3.1,4.3-4.7c0.6-0.7,1.1-1.3,1.7-2
				c0.4-0.5,0.9-1,1.3-1.6c0.3-0.4,0.7-0.8,1-1.2c0.1-0.1,0.2-0.2,0.3-0.4c0.5-0.6,1-1.2,1.5-1.8c2-2.6,3.9-5.2,5.7-7.9
				c0.6-0.9,1.2-1.8,1.8-2.7c0.5-0.8,1-1.6,1.5-2.4c0.2-0.3,0.4-0.7,0.6-1c0.4-0.7,0.8-1.4,1.2-2.1c0.5-0.9,1-1.7,1.5-2.6
				c0-0.1,0.1-0.1,0.1-0.2c0.4-0.7,0.8-1.5,1.2-2.2c0.6-1.2,1.3-2.4,1.9-3.6c0.4-0.9,0.9-1.8,1.3-2.7c0.5-1,0.9-2,1.4-2.9
				c0.4-0.8,0.8-1.7,1.1-2.6c0.2-0.3,0.3-0.7,0.4-1c0.3-0.7,0.5-1.3,0.8-2c0.9-2.2,1.7-4.4,2.5-6.7c0.3-0.9,0.6-1.8,0.9-2.7
				c0-0.1,0-0.1,0.1-0.2c0.3-1,0.6-1.9,0.9-2.9c0-0.1,0.1-0.3,0.1-0.4c0.3-1,0.6-2,0.8-3c0.3-1.1,0.6-2.1,0.8-3.2
				c0.3-1.1,0.5-2.1,0.8-3.2c0.2-1.1,0.5-2.2,0.7-3.2c0.2-1.1,0.4-2.2,0.6-3.2c0.2-1.1,0.4-2.2,0.6-3.3c0.2-1.1,0.3-2.2,0.5-3.3
				c0.1-0.9,0.2-1.8,0.3-2.7c0-0.1,0-0.3,0-0.4c0-0.3,0.1-0.6,0.1-0.8c0.1-0.9,0.2-1.8,0.3-2.7c0-0.1,0-0.1,0-0.2
				c0.1-1,0.2-2.1,0.2-3.2c0.1-0.9,0.1-1.7,0.2-2.5c0-0.5,0-1,0.1-1.5c0-0.8,0.1-1.5,0.1-2.3c0-0.2,0-0.4,0-0.5c0-1.1,0-2.2,0-3.3
				v-0.6C384,167.2,381.2,164.5,377.8,164.5z M250.4,321.6l17.9,21.9c0.7,0.8,0.5,1.7,0.3,2.1c-0.2,0.4-0.7,1.1-1.8,1.1H117.2
				c-1.1,0-1.6-0.7-1.8-1.1c-0.2-0.4-0.4-1.3,0.3-2.1l17.9-21.9c0.4-0.5,0.7-1,0.9-1.6c0.8,0.1,1.7,0.2,2.6,0.2
				c0.4,0,0.9,0.1,1.3,0.1c3.8,0.3,7.6,0.4,11.5,0.4h84.2c3.9,0,7.7-0.1,11.5-0.4c0.4,0,0.9-0.1,1.3-0.1c0.9-0.1,1.7-0.1,2.6-0.2
				C249.7,320.5,250,321.1,250.4,321.6z M332.8,269.7c-12.8,12.8-27.8,22.8-44.4,29.9c-17.2,7.3-35.5,10.9-54.3,10.9h-84.2
				c-1.4,0-2.7,0-4.1-0.1c-17.4-0.5-34.3-4.1-50.3-10.9c-16.6-7-31.6-17.1-44.4-29.9c-10.9-10.9-19.8-23.3-26.6-37h334.8
				C352.6,246.4,343.7,258.8,332.8,269.7z M371.8,194.4H96c-2.8,0-5.1,2.3-5.1,5.1c0,2.8,2.3,5.1,5.1,5.1h273.7
				c-1.5,6-3.4,12-5.7,17.8H20c-2.3-5.8-4.2-11.8-5.7-17.8h56.8c2.8,0,5.2-2.3,5.2-5.1c0-2.8-2.3-5.1-5.2-5.1h-59
				c-1.1-6.5-1.7-13-1.9-19.7h363.3C373.5,181.4,372.9,188,371.8,194.4z"/>
		</g>
	</g>
</g>
<g id="Capa_3">
</g>
</svg>
