<svg width="24" height="25" viewBox="0 0 24 25" fill="none" xmlns="http://www.w3.org/2000/svg">
<mask id="mask0_340_3070" style="mask-type:alpha" maskUnits="userSpaceOnUse" x="0" y="0" width="24" height="25">
<rect y="0.11908" width="24" height="24" fill="#D9D9D9"/>
</mask>
<g mask="url(#mask0_340_3070)">
<path d="M19.95 21.1191C17.8 21.1191 15.7042 20.6399 13.6625 19.6816C11.6208 18.7232 9.8125 17.4566 8.2375 15.8816C6.6625 14.3066 5.39583 12.4982 4.4375 10.4566C3.47917 8.41491 3 6.31908 3 4.16908C3 3.86908 3.1 3.61908 3.3 3.41908C3.5 3.21908 3.75 3.11908 4.05 3.11908H8.1C8.33333 3.11908 8.54167 3.19408 8.725 3.34408C8.90833 3.49408 9.01667 3.68575 9.05 3.91908L9.7 7.41908C9.73333 7.65241 9.72917 7.86491 9.6875 8.05658C9.64583 8.24825 9.55 8.41908 9.4 8.56908L7 11.0191C7.7 12.2191 8.575 13.3441 9.625 14.3941C10.675 15.4441 11.8333 16.3524 13.1 17.1191L15.45 14.7691C15.6 14.6191 15.7958 14.5066 16.0375 14.4316C16.2792 14.3566 16.5167 14.3357 16.75 14.3691L20.2 15.0691C20.4333 15.1191 20.625 15.2316 20.775 15.4066C20.925 15.5816 21 15.7857 21 16.0191V20.0691C21 20.3691 20.9 20.6191 20.7 20.8191C20.5 21.0191 20.25 21.1191 19.95 21.1191Z" fill="white"/>
</g>
</svg>
