<svg width="64" height="65" viewBox="0 0 64 65" fill="none" xmlns="http://www.w3.org/2000/svg">
<path d="M63.9941 26.6613C63.9822 26.2169 63.9467 25.7724 63.8756 25.3339L60.723 24.6406L61.6237 23.6035L62.88 22.1576C62.6726 21.7428 62.4415 21.3398 62.1867 20.9606C59.3245 16.6761 53.5882 14.7443 48.6163 16.4154C47.5437 16.7769 46.4059 17.3398 45.28 18.0569C43.6978 19.0583 42.1274 20.362 40.7645 21.8317C40.7467 21.8494 40.7289 21.8672 40.7111 21.8909C40.9304 21.4643 41.1378 21.0317 41.3393 20.5932C42.5719 17.8257 43.2948 14.845 43.2948 12.4094C43.2948 9.45241 42.2341 6.60204 40.4919 4.37982C39.0993 2.60204 37.2622 1.22723 35.1763 0.522043C35.0933 0.492413 35.0104 0.462783 34.9215 0.43908C34.4948 0.308709 34.0622 0.202043 33.6178 0.130931L32 3.01093L31.5556 2.21686L30.3941 0.130931L30.3882 0.11908C24.9185 1.03167 20.7111 6.50723 20.7111 12.3976C20.7111 14.3472 21.1733 16.6406 21.9852 18.8924C22.3467 19.888 22.7733 20.8776 23.2593 21.8198C23.2711 21.8376 23.277 21.8554 23.2889 21.8791C22.9867 21.5472 22.6726 21.2272 22.3467 20.9191C20.1778 18.8213 17.6415 17.1739 15.3837 16.4094C13.1259 15.6509 10.7141 15.6332 8.48593 16.2435H8.48001C5.92593 16.9428 3.6089 18.4598 2.03852 20.6228C1.96741 20.7235 1.89038 20.8302 1.81927 20.9369C1.55852 21.322 1.32741 21.725 1.11408 22.1517L3.27112 24.6346L0.497784 25.2509L0.485932 25.2569L0.118525 25.3339C0.106673 25.4228 0.0948209 25.5176 0.0829691 25.6065C0.0770432 25.642 0.0770432 25.6717 0.0711172 25.7072C0.0711172 25.725 0.0651913 25.7428 0.0651913 25.7606C0.0237098 26.1102 0.00593204 26.4598 6.11309e-06 26.8094C6.11309e-06 26.8509 6.11309e-06 26.8924 6.11309e-06 26.928C-0.0177717 32.0598 3.4963 37.0139 8.40297 38.6613C9.62964 39.0761 11.0756 39.325 12.6104 39.408C14.2341 39.4969 15.9585 39.3961 17.6356 39.0998C17.7245 39.082 17.8133 39.0702 17.9022 39.0524C16.2548 39.8761 14.6845 40.9132 13.3333 42.0569C13.3333 42.0569 13.3333 42.0569 13.3274 42.0569C12.1659 43.0406 11.1704 44.0954 10.4296 45.1502C9.01927 47.1591 8.26075 49.5591 8.14223 51.9709C8.14223 51.9769 8.14223 51.9828 8.14223 51.9887C8.10075 52.8598 8.14223 53.7309 8.26667 54.5843C8.27853 54.6554 8.29038 54.7206 8.30223 54.7917C8.31408 54.8568 8.32593 54.9161 8.33778 54.9813C8.34964 55.0406 8.36149 55.1057 8.37334 55.165C8.37334 55.1769 8.37927 55.1828 8.37927 55.1946C8.39112 55.248 8.40297 55.3013 8.4089 55.3487C8.43853 55.4791 8.46815 55.6154 8.49778 55.7457C8.50964 55.7931 8.52149 55.8465 8.53334 55.8939C8.53927 55.9117 8.54519 55.9354 8.54519 55.9532C8.55704 55.9946 8.5689 56.0361 8.58075 56.0776C8.58667 56.1072 8.5926 56.1309 8.60445 56.1606C8.6163 56.208 8.62815 56.2494 8.64001 56.2969C8.65778 56.362 8.67556 56.4272 8.69927 56.4924C8.72297 56.5694 8.74667 56.6406 8.77038 56.7176C8.77038 56.7235 8.7763 56.7294 8.7763 56.7354C8.80001 56.8006 8.81778 56.8657 8.84149 56.9309C8.84741 56.9487 8.85334 56.9606 8.85927 56.9783C8.88297 57.0435 8.90667 57.1146 8.93038 57.1798C8.94223 57.2154 8.96001 57.2569 8.97186 57.2924C8.98371 57.328 9.00149 57.3694 9.01334 57.405C9.01334 57.405 9.01334 57.4109 9.01927 57.4169C9.37482 58.3117 9.83704 59.1531 10.4 59.9294C10.6726 60.3028 10.9689 60.6583 11.2889 60.9902L14.2341 59.6331L14.0919 61.0198L13.8963 62.9576C14.2578 63.1472 14.6252 63.3131 14.9985 63.4494C19.7689 65.2628 25.5941 63.3369 28.6933 58.9161C29.8252 57.2983 30.7733 55.0939 31.3956 52.7057C31.6267 51.8228 31.8104 50.9161 31.9408 49.9976C31.9585 49.8909 31.9704 49.7783 31.9882 49.6717C32.2548 51.6865 32.7763 53.6954 33.4815 55.4731C33.4815 55.4791 33.4874 55.485 33.4874 55.4909C34.003 56.7828 34.6074 57.9502 35.283 58.9161C36.1896 60.208 37.3274 61.2865 38.6015 62.122C40.2726 63.2124 42.1748 63.888 44.1067 64.0776C44.1956 64.0835 44.2845 64.0954 44.3733 64.1013C44.4326 64.1072 44.4859 64.1072 44.5452 64.1132C44.6637 64.1191 44.7763 64.125 44.8948 64.1309C44.9541 64.1309 45.0133 64.1369 45.0726 64.1369C45.1319 64.1369 45.1911 64.1369 45.2504 64.1369C45.2859 64.1369 45.3274 64.1369 45.363 64.1369C45.6296 64.1309 45.8963 64.1191 46.163 64.0954H46.1689C46.2163 64.0894 46.2696 64.0835 46.317 64.0835C46.3822 64.0776 46.4533 64.0717 46.5185 64.0598C46.5896 64.0539 46.6608 64.042 46.7319 64.0302C47.8933 63.8702 49.0252 63.5206 50.0859 62.9635L49.7482 59.6391L50.5778 60.0243L52.6933 61.002C52.9185 60.765 53.1319 60.522 53.3274 60.2731C53.3333 60.2672 53.3333 60.2672 53.3333 60.2613C53.3452 60.2435 53.3571 60.2257 53.3748 60.208C56.6222 56.0657 56.6874 49.642 53.5526 45.168C52.9541 44.3146 52.1896 43.4613 51.3067 42.6494C49.8489 41.3043 48.0652 40.0657 46.1808 39.1117C46.1511 39.0939 46.1156 39.082 46.0859 39.0643C46.6667 39.1709 47.2474 39.2598 47.8341 39.3191C47.84 39.3191 47.8519 39.3191 47.8578 39.3191C50.6489 39.6154 53.4459 39.3902 55.5852 38.6672C59.5911 37.3161 62.6726 33.7665 63.6563 29.7132C63.6622 29.6954 63.6682 29.6776 63.6682 29.6539C63.8756 28.7946 63.9822 27.9057 63.9882 27.0169C64 26.8983 64 26.7798 63.9941 26.6613Z" fill="#FFBBD7"/>
<path d="M40.7407 34.5428C42.7437 33.8672 44.1244 31.7043 43.8104 29.6065L42.643 29.3517L43.443 28.4331C42.5067 26.5428 40.1659 25.6302 38.163 26.3057C37.203 26.6317 36.1067 27.3902 35.2355 28.3324C35.8341 27.1828 36.1896 25.8672 36.1896 24.8183C36.1896 22.6376 34.6311 20.6109 32.6044 20.2672L32 21.3398L31.4015 20.2672C29.3748 20.605 27.8163 22.6317 27.8163 24.8183C27.8163 25.8672 28.1718 27.1828 28.7704 28.3324C27.8993 27.3902 26.803 26.6317 25.843 26.3057C23.84 25.6302 21.4993 26.5428 20.563 28.4331L21.363 29.3517L20.1955 29.6065C19.8815 31.7102 21.2622 33.8672 23.2652 34.5428C24.2252 34.8687 25.5467 34.922 26.7852 34.685C25.6533 35.2539 24.6163 36.0954 24.0178 36.9428C22.7792 38.7087 22.8918 41.2983 24.3378 42.8035L25.4281 42.2998L25.3037 43.5324C27.1348 44.4924 29.5467 43.7991 30.7852 42.0331C31.3778 41.1857 31.8341 39.9057 32.0059 38.608C32.1778 39.8998 32.6341 41.1857 33.2267 42.0331C34.4652 43.7991 36.877 44.4924 38.7081 43.5324L38.5837 42.2998L39.6741 42.8035C41.12 41.2924 41.2326 38.7087 39.9941 36.9428C39.4015 36.0954 38.3644 35.248 37.2267 34.685C38.4593 34.922 39.7807 34.8687 40.7407 34.5428Z" fill="url(#paint0_radial_32_467)"/>
<path d="M29.0015 45.3753L32 33.4702L30.0622 45.6065L29.0015 45.3753Z" fill="#FF1515"/>
<path d="M26.6785 44.4687L32 33.4702L27.6682 44.925L26.6785 44.4687Z" fill="#FF1515"/>
<path d="M24.5926 43.082L32 33.4702L25.4637 43.7398L24.5926 43.082Z" fill="#FF1515"/>
<path d="M22.8207 41.2746L32 33.4702L23.5496 42.1102L22.8207 41.2746Z" fill="#FF1515"/>
<path d="M21.4578 39.1294L32 33.4702L21.997 40.1013L21.4578 39.1294Z" fill="#FF1515"/>
<path d="M20.5511 36.7353L32 33.4702L20.8889 37.802L20.5511 36.7353Z" fill="#FF1515"/>
<path d="M20.1481 34.199L32 33.4702L20.2607 35.3131L20.1481 34.199Z" fill="#FF1515"/>
<path d="M20.2607 31.6272L32 33.4702L20.1481 32.7413L20.2607 31.6272Z" fill="#FF1515"/>
<path d="M20.8889 29.1383L32 33.4702L20.5511 30.205L20.8889 29.1383Z" fill="#FF1515"/>
<path d="M21.997 26.8391L32 33.4702L21.4578 27.8109L21.997 26.8391Z" fill="#FF1515"/>
<path d="M23.5496 24.8302L32 33.4702L22.8207 25.6658L23.5496 24.8302Z" fill="#FF1515"/>
<path d="M25.4637 23.2006L32 33.4702L24.5926 23.8583L25.4637 23.2006Z" fill="#FF1515"/>
<path d="M27.6682 22.0154L32 33.4702L26.6785 22.4717L27.6682 22.0154Z" fill="#FF1515"/>
<path d="M30.0622 21.3339L32 33.4702L29.0015 21.565L30.0622 21.3339Z" fill="#FF1515"/>
<path d="M32.5392 21.1798L32 33.4702L31.4607 21.1798H32.5392Z" fill="#FF1515"/>
<path d="M34.9926 21.565L32 33.4702L33.9378 21.3339L34.9926 21.565Z" fill="#FF1515"/>
<path d="M37.3156 22.4717L32 33.4702L36.3319 22.0154L37.3156 22.4717Z" fill="#FF1515"/>
<path d="M39.4074 23.8583L32 33.4702L38.5304 23.2006L39.4074 23.8583Z" fill="#FF1515"/>
<path d="M41.1733 25.6658L32 33.4702L40.4504 24.8302L41.1733 25.6658Z" fill="#FF1515"/>
<path d="M42.5422 27.8109L32 33.4702L42.003 26.8391L42.5422 27.8109Z" fill="#FF1515"/>
<path d="M43.4489 30.205L32 33.4702L43.1111 29.1383L43.4489 30.205Z" fill="#FF1515"/>
<path d="M43.8519 32.7413L32 33.4702L43.7393 31.6272L43.8519 32.7413Z" fill="#FF1515"/>
<path d="M43.7393 35.3131L32 33.4702L43.8519 34.199L43.7393 35.3131Z" fill="#FF1515"/>
<path d="M43.1111 37.802L32 33.4702L43.4489 36.7353L43.1111 37.802Z" fill="#FF1515"/>
<path d="M42.003 40.1013L32 33.4702L42.5422 39.1294L42.003 40.1013Z" fill="#FF1515"/>
<path d="M40.4504 42.1102L32 33.4702L41.1733 41.2746L40.4504 42.1102Z" fill="#FF1515"/>
<path d="M38.5304 43.7398L32 33.4702L39.4074 43.082L38.5304 43.7398Z" fill="#FF1515"/>
<path d="M36.3319 44.925L32 33.4702L37.3156 44.4687L36.3319 44.925Z" fill="#FF1515"/>
<path d="M33.9378 45.6065L32 33.4702L34.9926 45.3753L33.9378 45.6065Z" fill="#FF1515"/>
<path d="M31.4607 45.7605L32 33.4702L32.5392 45.7605H31.4607Z" fill="#FF1515"/>
<defs>
<radialGradient id="paint0_radial_32_467" cx="0" cy="0" r="1" gradientUnits="userSpaceOnUse" gradientTransform="translate(31.9995 32.1191) scale(11.8519)">
<stop stop-color="#D4145A"/>
<stop offset="0.1803" stop-color="#DE3B78"/>
<stop offset="0.4565" stop-color="#EC72A0"/>
<stop offset="0.6952" stop-color="#F69ABE"/>
<stop offset="0.8842" stop-color="#FDB2D0"/>
<stop offset="1" stop-color="#FFBBD7"/>
</radialGradient>
</defs>
</svg>
