<svg width="33" height="33" viewBox="0 0 33 33" fill="none" xmlns="http://www.w3.org/2000/svg">
<mask id="mask0_326_3502" style="mask-type:alpha" maskUnits="userSpaceOnUse" x="0" y="0" width="33" height="33">
<rect x="0.5" y="0.314209" width="32" height="32" fill="#D9D9D9"/>
</mask>
<g mask="url(#mask0_326_3502)">
<path d="M16.5007 16.3143C17.234 16.3143 17.8618 16.0532 18.384 15.531C18.9062 15.0087 19.1673 14.381 19.1673 13.6476C19.1673 12.9143 18.9062 12.2865 18.384 11.7643C17.8618 11.2421 17.234 10.981 16.5007 10.981C15.7673 10.981 15.1395 11.2421 14.6173 11.7643C14.0951 12.2865 13.834 12.9143 13.834 13.6476C13.834 14.381 14.0951 15.0087 14.6173 15.531C15.1395 16.0532 15.7673 16.3143 16.5007 16.3143ZM16.5007 26.1143C19.2118 23.6254 21.2229 21.3643 22.534 19.331C23.8451 17.2976 24.5007 15.4921 24.5007 13.9143C24.5007 11.4921 23.7284 9.50873 22.184 7.96429C20.6395 6.41985 18.7451 5.64762 16.5007 5.64762C14.2562 5.64762 12.3618 6.41985 10.8173 7.96429C9.27287 9.50873 8.50065 11.4921 8.50065 13.9143C8.50065 15.4921 9.15621 17.2976 10.4673 19.331C11.7784 21.3643 13.7895 23.6254 16.5007 26.1143ZM16.5007 29.6476C12.9229 26.6032 10.2507 23.7754 8.48398 21.1643C6.71732 18.5532 5.83398 16.1365 5.83398 13.9143C5.83398 10.581 6.90621 7.9254 9.05065 5.94762C11.1951 3.96985 13.6784 2.98096 16.5007 2.98096C19.3229 2.98096 21.8062 3.96985 23.9507 5.94762C26.0951 7.9254 27.1673 10.581 27.1673 13.9143C27.1673 16.1365 26.284 18.5532 24.5173 21.1643C22.7507 23.7754 20.0784 26.6032 16.5007 29.6476Z" fill="#1C1B1F"/>
</g>
</svg>
